G04 #@! TF.GenerationSoftware,KiCad,Pcbnew,(6.0.4-0)*
G04 #@! TF.CreationDate,2022-07-20T07:57:21-04:00*
G04 #@! TF.ProjectId,80m_Tx_Antenna,38306d5f-5478-45f4-916e-74656e6e612e,rev?*
G04 #@! TF.SameCoordinates,Original*
G04 #@! TF.FileFunction,Legend,Top*
G04 #@! TF.FilePolarity,Positive*
%FSLAX46Y46*%
G04 Gerber Fmt 4.6, Leading zero omitted, Abs format (unit mm)*
G04 Created by KiCad (PCBNEW (6.0.4-0)) date 2022-07-20 07:57:21*
%MOMM*%
%LPD*%
G01*
G04 APERTURE LIST*
%ADD10C,0.150000*%
%ADD11C,0.250000*%
%ADD12C,2.500000*%
%ADD13R,3.500000X3.500000*%
%ADD14C,3.500000*%
%ADD15C,2.000000*%
%ADD16R,3.000000X3.500000*%
%ADD17C,4.000000*%
%ADD18R,10.000000X20.000000*%
%ADD19C,5.000000*%
%ADD20R,15.000000X5.000000*%
%ADD21C,3.000000*%
%ADD22C,0.500000*%
G04 APERTURE END LIST*
D10*
X100000000Y-67000000D02*
X144000000Y-67000000D01*
X105180000Y-130110000D02*
X109300000Y-130110000D01*
X105240000Y-118640000D02*
X105240000Y-126940000D01*
X109300000Y-130110000D02*
X109300000Y-138830000D01*
X109270000Y-118600000D02*
X105270000Y-118600000D01*
X109300000Y-138830000D02*
X105240000Y-138830000D01*
X105320000Y-126980000D02*
X109200000Y-126980000D01*
X109290000Y-126940000D02*
X109290000Y-118680000D01*
X105240000Y-138830000D02*
X105240000Y-130170000D01*
D11*
X110804285Y-112632142D02*
X110756666Y-112679761D01*
X110613809Y-112727380D01*
X110518571Y-112727380D01*
X110375714Y-112679761D01*
X110280476Y-112584523D01*
X110232857Y-112489285D01*
X110185238Y-112298809D01*
X110185238Y-112155952D01*
X110232857Y-111965476D01*
X110280476Y-111870238D01*
X110375714Y-111775000D01*
X110518571Y-111727380D01*
X110613809Y-111727380D01*
X110756666Y-111775000D01*
X110804285Y-111822619D01*
X111375714Y-112727380D02*
X111280476Y-112679761D01*
X111232857Y-112632142D01*
X111185238Y-112536904D01*
X111185238Y-112251190D01*
X111232857Y-112155952D01*
X111280476Y-112108333D01*
X111375714Y-112060714D01*
X111518571Y-112060714D01*
X111613809Y-112108333D01*
X111661428Y-112155952D01*
X111709047Y-112251190D01*
X111709047Y-112536904D01*
X111661428Y-112632142D01*
X111613809Y-112679761D01*
X111518571Y-112727380D01*
X111375714Y-112727380D01*
X112566190Y-112727380D02*
X112566190Y-112203571D01*
X112518571Y-112108333D01*
X112423333Y-112060714D01*
X112232857Y-112060714D01*
X112137619Y-112108333D01*
X112566190Y-112679761D02*
X112470952Y-112727380D01*
X112232857Y-112727380D01*
X112137619Y-112679761D01*
X112090000Y-112584523D01*
X112090000Y-112489285D01*
X112137619Y-112394047D01*
X112232857Y-112346428D01*
X112470952Y-112346428D01*
X112566190Y-112298809D01*
X112947142Y-112727380D02*
X113470952Y-112060714D01*
X112947142Y-112060714D02*
X113470952Y-112727380D01*
X115185238Y-112632142D02*
X115137619Y-112679761D01*
X114994761Y-112727380D01*
X114899523Y-112727380D01*
X114756666Y-112679761D01*
X114661428Y-112584523D01*
X114613809Y-112489285D01*
X114566190Y-112298809D01*
X114566190Y-112155952D01*
X114613809Y-111965476D01*
X114661428Y-111870238D01*
X114756666Y-111775000D01*
X114899523Y-111727380D01*
X114994761Y-111727380D01*
X115137619Y-111775000D01*
X115185238Y-111822619D01*
X115994761Y-112679761D02*
X115899523Y-112727380D01*
X115709047Y-112727380D01*
X115613809Y-112679761D01*
X115566190Y-112584523D01*
X115566190Y-112203571D01*
X115613809Y-112108333D01*
X115709047Y-112060714D01*
X115899523Y-112060714D01*
X115994761Y-112108333D01*
X116042380Y-112203571D01*
X116042380Y-112298809D01*
X115566190Y-112394047D01*
X116470952Y-112060714D02*
X116470952Y-112727380D01*
X116470952Y-112155952D02*
X116518571Y-112108333D01*
X116613809Y-112060714D01*
X116756666Y-112060714D01*
X116851904Y-112108333D01*
X116899523Y-112203571D01*
X116899523Y-112727380D01*
X117232857Y-112060714D02*
X117613809Y-112060714D01*
X117375714Y-111727380D02*
X117375714Y-112584523D01*
X117423333Y-112679761D01*
X117518571Y-112727380D01*
X117613809Y-112727380D01*
X118328095Y-112679761D02*
X118232857Y-112727380D01*
X118042380Y-112727380D01*
X117947142Y-112679761D01*
X117899523Y-112584523D01*
X117899523Y-112203571D01*
X117947142Y-112108333D01*
X118042380Y-112060714D01*
X118232857Y-112060714D01*
X118328095Y-112108333D01*
X118375714Y-112203571D01*
X118375714Y-112298809D01*
X117899523Y-112394047D01*
X118804285Y-112727380D02*
X118804285Y-112060714D01*
X118804285Y-112251190D02*
X118851904Y-112155952D01*
X118899523Y-112108333D01*
X118994761Y-112060714D01*
X119090000Y-112060714D01*
X111613809Y-114242142D02*
X111566190Y-114289761D01*
X111423333Y-114337380D01*
X111328095Y-114337380D01*
X111185238Y-114289761D01*
X111090000Y-114194523D01*
X111042380Y-114099285D01*
X110994761Y-113908809D01*
X110994761Y-113765952D01*
X111042380Y-113575476D01*
X111090000Y-113480238D01*
X111185238Y-113385000D01*
X111328095Y-113337380D01*
X111423333Y-113337380D01*
X111566190Y-113385000D01*
X111613809Y-113432619D01*
X112185238Y-114337380D02*
X112090000Y-114289761D01*
X112042380Y-114242142D01*
X111994761Y-114146904D01*
X111994761Y-113861190D01*
X112042380Y-113765952D01*
X112090000Y-113718333D01*
X112185238Y-113670714D01*
X112328095Y-113670714D01*
X112423333Y-113718333D01*
X112470952Y-113765952D01*
X112518571Y-113861190D01*
X112518571Y-114146904D01*
X112470952Y-114242142D01*
X112423333Y-114289761D01*
X112328095Y-114337380D01*
X112185238Y-114337380D01*
X112947142Y-113670714D02*
X112947142Y-114337380D01*
X112947142Y-113765952D02*
X112994761Y-113718333D01*
X113090000Y-113670714D01*
X113232857Y-113670714D01*
X113328095Y-113718333D01*
X113375714Y-113813571D01*
X113375714Y-114337380D01*
X114280476Y-114337380D02*
X114280476Y-113337380D01*
X114280476Y-114289761D02*
X114185238Y-114337380D01*
X113994761Y-114337380D01*
X113899523Y-114289761D01*
X113851904Y-114242142D01*
X113804285Y-114146904D01*
X113804285Y-113861190D01*
X113851904Y-113765952D01*
X113899523Y-113718333D01*
X113994761Y-113670714D01*
X114185238Y-113670714D01*
X114280476Y-113718333D01*
X115185238Y-113670714D02*
X115185238Y-114337380D01*
X114756666Y-113670714D02*
X114756666Y-114194523D01*
X114804285Y-114289761D01*
X114899523Y-114337380D01*
X115042380Y-114337380D01*
X115137619Y-114289761D01*
X115185238Y-114242142D01*
X116090000Y-114289761D02*
X115994761Y-114337380D01*
X115804285Y-114337380D01*
X115709047Y-114289761D01*
X115661428Y-114242142D01*
X115613809Y-114146904D01*
X115613809Y-113861190D01*
X115661428Y-113765952D01*
X115709047Y-113718333D01*
X115804285Y-113670714D01*
X115994761Y-113670714D01*
X116090000Y-113718333D01*
X116375714Y-113670714D02*
X116756666Y-113670714D01*
X116518571Y-113337380D02*
X116518571Y-114194523D01*
X116566190Y-114289761D01*
X116661428Y-114337380D01*
X116756666Y-114337380D01*
X117232857Y-114337380D02*
X117137619Y-114289761D01*
X117090000Y-114242142D01*
X117042380Y-114146904D01*
X117042380Y-113861190D01*
X117090000Y-113765952D01*
X117137619Y-113718333D01*
X117232857Y-113670714D01*
X117375714Y-113670714D01*
X117470952Y-113718333D01*
X117518571Y-113765952D01*
X117566190Y-113861190D01*
X117566190Y-114146904D01*
X117518571Y-114242142D01*
X117470952Y-114289761D01*
X117375714Y-114337380D01*
X117232857Y-114337380D01*
X117994761Y-114337380D02*
X117994761Y-113670714D01*
X117994761Y-113861190D02*
X118042380Y-113765952D01*
X118090000Y-113718333D01*
X118185238Y-113670714D01*
X118280476Y-113670714D01*
X131145238Y-141707380D02*
X130669047Y-141707380D01*
X130669047Y-140707380D01*
X131621428Y-141707380D02*
X131526190Y-141659761D01*
X131478571Y-141612142D01*
X131430952Y-141516904D01*
X131430952Y-141231190D01*
X131478571Y-141135952D01*
X131526190Y-141088333D01*
X131621428Y-141040714D01*
X131764285Y-141040714D01*
X131859523Y-141088333D01*
X131907142Y-141135952D01*
X131954761Y-141231190D01*
X131954761Y-141516904D01*
X131907142Y-141612142D01*
X131859523Y-141659761D01*
X131764285Y-141707380D01*
X131621428Y-141707380D01*
X132288095Y-141040714D02*
X132478571Y-141707380D01*
X132669047Y-141231190D01*
X132859523Y-141707380D01*
X133050000Y-141040714D01*
X133811904Y-141659761D02*
X133716666Y-141707380D01*
X133526190Y-141707380D01*
X133430952Y-141659761D01*
X133383333Y-141564523D01*
X133383333Y-141183571D01*
X133430952Y-141088333D01*
X133526190Y-141040714D01*
X133716666Y-141040714D01*
X133811904Y-141088333D01*
X133859523Y-141183571D01*
X133859523Y-141278809D01*
X133383333Y-141374047D01*
X134288095Y-141707380D02*
X134288095Y-141040714D01*
X134288095Y-141231190D02*
X134335714Y-141135952D01*
X134383333Y-141088333D01*
X134478571Y-141040714D01*
X134573809Y-141040714D01*
X129811904Y-142793571D02*
X130145238Y-142793571D01*
X130288095Y-143317380D02*
X129811904Y-143317380D01*
X129811904Y-142317380D01*
X130288095Y-142317380D01*
X130859523Y-143317380D02*
X130764285Y-143269761D01*
X130716666Y-143174523D01*
X130716666Y-142317380D01*
X131621428Y-143269761D02*
X131526190Y-143317380D01*
X131335714Y-143317380D01*
X131240476Y-143269761D01*
X131192857Y-143174523D01*
X131192857Y-142793571D01*
X131240476Y-142698333D01*
X131335714Y-142650714D01*
X131526190Y-142650714D01*
X131621428Y-142698333D01*
X131669047Y-142793571D01*
X131669047Y-142888809D01*
X131192857Y-142984047D01*
X132097619Y-143317380D02*
X132097619Y-142650714D01*
X132097619Y-142745952D02*
X132145238Y-142698333D01*
X132240476Y-142650714D01*
X132383333Y-142650714D01*
X132478571Y-142698333D01*
X132526190Y-142793571D01*
X132526190Y-143317380D01*
X132526190Y-142793571D02*
X132573809Y-142698333D01*
X132669047Y-142650714D01*
X132811904Y-142650714D01*
X132907142Y-142698333D01*
X132954761Y-142793571D01*
X132954761Y-143317380D01*
X133811904Y-143269761D02*
X133716666Y-143317380D01*
X133526190Y-143317380D01*
X133430952Y-143269761D01*
X133383333Y-143174523D01*
X133383333Y-142793571D01*
X133430952Y-142698333D01*
X133526190Y-142650714D01*
X133716666Y-142650714D01*
X133811904Y-142698333D01*
X133859523Y-142793571D01*
X133859523Y-142888809D01*
X133383333Y-142984047D01*
X134288095Y-142650714D02*
X134288095Y-143317380D01*
X134288095Y-142745952D02*
X134335714Y-142698333D01*
X134430952Y-142650714D01*
X134573809Y-142650714D01*
X134669047Y-142698333D01*
X134716666Y-142793571D01*
X134716666Y-143317380D01*
X135050000Y-142650714D02*
X135430952Y-142650714D01*
X135192857Y-142317380D02*
X135192857Y-143174523D01*
X135240476Y-143269761D01*
X135335714Y-143317380D01*
X135430952Y-143317380D01*
X136860000Y-136682142D02*
X136812380Y-136729761D01*
X136669523Y-136777380D01*
X136574285Y-136777380D01*
X136431428Y-136729761D01*
X136336190Y-136634523D01*
X136288571Y-136539285D01*
X136240952Y-136348809D01*
X136240952Y-136205952D01*
X136288571Y-136015476D01*
X136336190Y-135920238D01*
X136431428Y-135825000D01*
X136574285Y-135777380D01*
X136669523Y-135777380D01*
X136812380Y-135825000D01*
X136860000Y-135872619D01*
X137431428Y-136777380D02*
X137336190Y-136729761D01*
X137288571Y-136682142D01*
X137240952Y-136586904D01*
X137240952Y-136301190D01*
X137288571Y-136205952D01*
X137336190Y-136158333D01*
X137431428Y-136110714D01*
X137574285Y-136110714D01*
X137669523Y-136158333D01*
X137717142Y-136205952D01*
X137764761Y-136301190D01*
X137764761Y-136586904D01*
X137717142Y-136682142D01*
X137669523Y-136729761D01*
X137574285Y-136777380D01*
X137431428Y-136777380D01*
X138621904Y-136777380D02*
X138621904Y-136253571D01*
X138574285Y-136158333D01*
X138479047Y-136110714D01*
X138288571Y-136110714D01*
X138193333Y-136158333D01*
X138621904Y-136729761D02*
X138526666Y-136777380D01*
X138288571Y-136777380D01*
X138193333Y-136729761D01*
X138145714Y-136634523D01*
X138145714Y-136539285D01*
X138193333Y-136444047D01*
X138288571Y-136396428D01*
X138526666Y-136396428D01*
X138621904Y-136348809D01*
X139002857Y-136777380D02*
X139526666Y-136110714D01*
X139002857Y-136110714D02*
X139526666Y-136777380D01*
X135740952Y-138339761D02*
X135883809Y-138387380D01*
X136121904Y-138387380D01*
X136217142Y-138339761D01*
X136264761Y-138292142D01*
X136312380Y-138196904D01*
X136312380Y-138101666D01*
X136264761Y-138006428D01*
X136217142Y-137958809D01*
X136121904Y-137911190D01*
X135931428Y-137863571D01*
X135836190Y-137815952D01*
X135788571Y-137768333D01*
X135740952Y-137673095D01*
X135740952Y-137577857D01*
X135788571Y-137482619D01*
X135836190Y-137435000D01*
X135931428Y-137387380D01*
X136169523Y-137387380D01*
X136312380Y-137435000D01*
X136740952Y-138387380D02*
X136740952Y-137387380D01*
X137169523Y-138387380D02*
X137169523Y-137863571D01*
X137121904Y-137768333D01*
X137026666Y-137720714D01*
X136883809Y-137720714D01*
X136788571Y-137768333D01*
X136740952Y-137815952D01*
X137645714Y-138387380D02*
X137645714Y-137720714D01*
X137645714Y-137387380D02*
X137598095Y-137435000D01*
X137645714Y-137482619D01*
X137693333Y-137435000D01*
X137645714Y-137387380D01*
X137645714Y-137482619D01*
X138502857Y-138339761D02*
X138407619Y-138387380D01*
X138217142Y-138387380D01*
X138121904Y-138339761D01*
X138074285Y-138244523D01*
X138074285Y-137863571D01*
X138121904Y-137768333D01*
X138217142Y-137720714D01*
X138407619Y-137720714D01*
X138502857Y-137768333D01*
X138550476Y-137863571D01*
X138550476Y-137958809D01*
X138074285Y-138054047D01*
X139121904Y-138387380D02*
X139026666Y-138339761D01*
X138979047Y-138244523D01*
X138979047Y-137387380D01*
X139931428Y-138387380D02*
X139931428Y-137387380D01*
X139931428Y-138339761D02*
X139836190Y-138387380D01*
X139645714Y-138387380D01*
X139550476Y-138339761D01*
X139502857Y-138292142D01*
X139455238Y-138196904D01*
X139455238Y-137911190D01*
X139502857Y-137815952D01*
X139550476Y-137768333D01*
X139645714Y-137720714D01*
X139836190Y-137720714D01*
X139931428Y-137768333D01*
X115596666Y-57712380D02*
X115834761Y-58712380D01*
X116025238Y-57998095D01*
X116215714Y-58712380D01*
X116453809Y-57712380D01*
X116834761Y-58712380D02*
X116834761Y-58045714D01*
X116834761Y-57712380D02*
X116787142Y-57760000D01*
X116834761Y-57807619D01*
X116882380Y-57760000D01*
X116834761Y-57712380D01*
X116834761Y-57807619D01*
X117310952Y-58712380D02*
X117310952Y-58045714D01*
X117310952Y-58236190D02*
X117358571Y-58140952D01*
X117406190Y-58093333D01*
X117501428Y-58045714D01*
X117596666Y-58045714D01*
X118310952Y-58664761D02*
X118215714Y-58712380D01*
X118025238Y-58712380D01*
X117930000Y-58664761D01*
X117882380Y-58569523D01*
X117882380Y-58188571D01*
X117930000Y-58093333D01*
X118025238Y-58045714D01*
X118215714Y-58045714D01*
X118310952Y-58093333D01*
X118358571Y-58188571D01*
X118358571Y-58283809D01*
X117882380Y-58379047D01*
X119549047Y-58188571D02*
X119882380Y-58188571D01*
X120025238Y-58712380D02*
X119549047Y-58712380D01*
X119549047Y-57712380D01*
X120025238Y-57712380D01*
X120453809Y-58045714D02*
X120453809Y-58712380D01*
X120453809Y-58140952D02*
X120501428Y-58093333D01*
X120596666Y-58045714D01*
X120739523Y-58045714D01*
X120834761Y-58093333D01*
X120882380Y-58188571D01*
X120882380Y-58712380D01*
X121787142Y-58712380D02*
X121787142Y-57712380D01*
X121787142Y-58664761D02*
X121691904Y-58712380D01*
X121501428Y-58712380D01*
X121406190Y-58664761D01*
X121358571Y-58617142D01*
X121310952Y-58521904D01*
X121310952Y-58236190D01*
X121358571Y-58140952D01*
X121406190Y-58093333D01*
X121501428Y-58045714D01*
X121691904Y-58045714D01*
X121787142Y-58093333D01*
X123025238Y-58712380D02*
X123025238Y-57712380D01*
X123501428Y-58045714D02*
X123501428Y-58712380D01*
X123501428Y-58140952D02*
X123549047Y-58093333D01*
X123644285Y-58045714D01*
X123787142Y-58045714D01*
X123882380Y-58093333D01*
X123930000Y-58188571D01*
X123930000Y-58712380D01*
X124358571Y-58664761D02*
X124453809Y-58712380D01*
X124644285Y-58712380D01*
X124739523Y-58664761D01*
X124787142Y-58569523D01*
X124787142Y-58521904D01*
X124739523Y-58426666D01*
X124644285Y-58379047D01*
X124501428Y-58379047D01*
X124406190Y-58331428D01*
X124358571Y-58236190D01*
X124358571Y-58188571D01*
X124406190Y-58093333D01*
X124501428Y-58045714D01*
X124644285Y-58045714D01*
X124739523Y-58093333D01*
X125644285Y-58045714D02*
X125644285Y-58712380D01*
X125215714Y-58045714D02*
X125215714Y-58569523D01*
X125263333Y-58664761D01*
X125358571Y-58712380D01*
X125501428Y-58712380D01*
X125596666Y-58664761D01*
X125644285Y-58617142D01*
X126263333Y-58712380D02*
X126168095Y-58664761D01*
X126120476Y-58569523D01*
X126120476Y-57712380D01*
X127072857Y-58712380D02*
X127072857Y-58188571D01*
X127025238Y-58093333D01*
X126930000Y-58045714D01*
X126739523Y-58045714D01*
X126644285Y-58093333D01*
X127072857Y-58664761D02*
X126977619Y-58712380D01*
X126739523Y-58712380D01*
X126644285Y-58664761D01*
X126596666Y-58569523D01*
X126596666Y-58474285D01*
X126644285Y-58379047D01*
X126739523Y-58331428D01*
X126977619Y-58331428D01*
X127072857Y-58283809D01*
X127406190Y-58045714D02*
X127787142Y-58045714D01*
X127549047Y-57712380D02*
X127549047Y-58569523D01*
X127596666Y-58664761D01*
X127691904Y-58712380D01*
X127787142Y-58712380D01*
X128263333Y-58712380D02*
X128168095Y-58664761D01*
X128120476Y-58617142D01*
X128072857Y-58521904D01*
X128072857Y-58236190D01*
X128120476Y-58140952D01*
X128168095Y-58093333D01*
X128263333Y-58045714D01*
X128406190Y-58045714D01*
X128501428Y-58093333D01*
X128549047Y-58140952D01*
X128596666Y-58236190D01*
X128596666Y-58521904D01*
X128549047Y-58617142D01*
X128501428Y-58664761D01*
X128406190Y-58712380D01*
X128263333Y-58712380D01*
X129025238Y-58712380D02*
X129025238Y-58045714D01*
X129025238Y-58236190D02*
X129072857Y-58140952D01*
X129120476Y-58093333D01*
X129215714Y-58045714D01*
X129310952Y-58045714D01*
X112331428Y-78237380D02*
X112331428Y-79046904D01*
X112379047Y-79142142D01*
X112426666Y-79189761D01*
X112521904Y-79237380D01*
X112712380Y-79237380D01*
X112807619Y-79189761D01*
X112855238Y-79142142D01*
X112902857Y-79046904D01*
X112902857Y-78237380D01*
X113379047Y-78570714D02*
X113379047Y-79570714D01*
X113379047Y-78618333D02*
X113474285Y-78570714D01*
X113664761Y-78570714D01*
X113760000Y-78618333D01*
X113807619Y-78665952D01*
X113855238Y-78761190D01*
X113855238Y-79046904D01*
X113807619Y-79142142D01*
X113760000Y-79189761D01*
X113664761Y-79237380D01*
X113474285Y-79237380D01*
X113379047Y-79189761D01*
X114283809Y-78570714D02*
X114283809Y-79570714D01*
X114283809Y-78618333D02*
X114379047Y-78570714D01*
X114569523Y-78570714D01*
X114664761Y-78618333D01*
X114712380Y-78665952D01*
X114760000Y-78761190D01*
X114760000Y-79046904D01*
X114712380Y-79142142D01*
X114664761Y-79189761D01*
X114569523Y-79237380D01*
X114379047Y-79237380D01*
X114283809Y-79189761D01*
X115569523Y-79189761D02*
X115474285Y-79237380D01*
X115283809Y-79237380D01*
X115188571Y-79189761D01*
X115140952Y-79094523D01*
X115140952Y-78713571D01*
X115188571Y-78618333D01*
X115283809Y-78570714D01*
X115474285Y-78570714D01*
X115569523Y-78618333D01*
X115617142Y-78713571D01*
X115617142Y-78808809D01*
X115140952Y-78904047D01*
X116045714Y-79237380D02*
X116045714Y-78570714D01*
X116045714Y-78761190D02*
X116093333Y-78665952D01*
X116140952Y-78618333D01*
X116236190Y-78570714D01*
X116331428Y-78570714D01*
X111521904Y-80323571D02*
X111855238Y-80323571D01*
X111998095Y-80847380D02*
X111521904Y-80847380D01*
X111521904Y-79847380D01*
X111998095Y-79847380D01*
X112569523Y-80847380D02*
X112474285Y-80799761D01*
X112426666Y-80704523D01*
X112426666Y-79847380D01*
X113331428Y-80799761D02*
X113236190Y-80847380D01*
X113045714Y-80847380D01*
X112950476Y-80799761D01*
X112902857Y-80704523D01*
X112902857Y-80323571D01*
X112950476Y-80228333D01*
X113045714Y-80180714D01*
X113236190Y-80180714D01*
X113331428Y-80228333D01*
X113379047Y-80323571D01*
X113379047Y-80418809D01*
X112902857Y-80514047D01*
X113807619Y-80847380D02*
X113807619Y-80180714D01*
X113807619Y-80275952D02*
X113855238Y-80228333D01*
X113950476Y-80180714D01*
X114093333Y-80180714D01*
X114188571Y-80228333D01*
X114236190Y-80323571D01*
X114236190Y-80847380D01*
X114236190Y-80323571D02*
X114283809Y-80228333D01*
X114379047Y-80180714D01*
X114521904Y-80180714D01*
X114617142Y-80228333D01*
X114664761Y-80323571D01*
X114664761Y-80847380D01*
X115521904Y-80799761D02*
X115426666Y-80847380D01*
X115236190Y-80847380D01*
X115140952Y-80799761D01*
X115093333Y-80704523D01*
X115093333Y-80323571D01*
X115140952Y-80228333D01*
X115236190Y-80180714D01*
X115426666Y-80180714D01*
X115521904Y-80228333D01*
X115569523Y-80323571D01*
X115569523Y-80418809D01*
X115093333Y-80514047D01*
X115998095Y-80180714D02*
X115998095Y-80847380D01*
X115998095Y-80275952D02*
X116045714Y-80228333D01*
X116140952Y-80180714D01*
X116283809Y-80180714D01*
X116379047Y-80228333D01*
X116426666Y-80323571D01*
X116426666Y-80847380D01*
X116760000Y-80180714D02*
X117140952Y-80180714D01*
X116902857Y-79847380D02*
X116902857Y-80704523D01*
X116950476Y-80799761D01*
X117045714Y-80847380D01*
X117140952Y-80847380D01*
D10*
X119472380Y-72585714D02*
X120186666Y-72585714D01*
X120329523Y-72633333D01*
X120424761Y-72728571D01*
X120472380Y-72871428D01*
X120472380Y-72966666D01*
X120472380Y-71585714D02*
X120472380Y-72157142D01*
X120472380Y-71871428D02*
X119472380Y-71871428D01*
X119615238Y-71966666D01*
X119710476Y-72061904D01*
X119758095Y-72157142D01*
X119472380Y-70966666D02*
X119472380Y-70871428D01*
X119520000Y-70776190D01*
X119567619Y-70728571D01*
X119662857Y-70680952D01*
X119853333Y-70633333D01*
X120091428Y-70633333D01*
X120281904Y-70680952D01*
X120377142Y-70728571D01*
X120424761Y-70776190D01*
X120472380Y-70871428D01*
X120472380Y-70966666D01*
X120424761Y-71061904D01*
X120377142Y-71109523D01*
X120281904Y-71157142D01*
X120091428Y-71204761D01*
X119853333Y-71204761D01*
X119662857Y-71157142D01*
X119567619Y-71109523D01*
X119520000Y-71061904D01*
X119472380Y-70966666D01*
X120472380Y-69680952D02*
X120472380Y-70252380D01*
X120472380Y-69966666D02*
X119472380Y-69966666D01*
X119615238Y-70061904D01*
X119710476Y-70157142D01*
X119758095Y-70252380D01*
X120315714Y-92602380D02*
X120887142Y-92602380D01*
X120601428Y-93602380D02*
X120601428Y-92602380D01*
X121744285Y-93602380D02*
X121172857Y-93602380D01*
X121458571Y-93602380D02*
X121458571Y-92602380D01*
X121363333Y-92745238D01*
X121268095Y-92840476D01*
X121172857Y-92888095D01*
X122363333Y-92602380D02*
X122458571Y-92602380D01*
X122553809Y-92650000D01*
X122601428Y-92697619D01*
X122649047Y-92792857D01*
X122696666Y-92983333D01*
X122696666Y-93221428D01*
X122649047Y-93411904D01*
X122601428Y-93507142D01*
X122553809Y-93554761D01*
X122458571Y-93602380D01*
X122363333Y-93602380D01*
X122268095Y-93554761D01*
X122220476Y-93507142D01*
X122172857Y-93411904D01*
X122125238Y-93221428D01*
X122125238Y-92983333D01*
X122172857Y-92792857D01*
X122220476Y-92697619D01*
X122268095Y-92650000D01*
X122363333Y-92602380D01*
X123649047Y-93602380D02*
X123077619Y-93602380D01*
X123363333Y-93602380D02*
X123363333Y-92602380D01*
X123268095Y-92745238D01*
X123172857Y-92840476D01*
X123077619Y-92888095D01*
X139226300Y-89533928D02*
X139226300Y-88933928D01*
X139454871Y-88933928D01*
X139512014Y-88962500D01*
X139540585Y-88991071D01*
X139569157Y-89048214D01*
X139569157Y-89133928D01*
X139540585Y-89191071D01*
X139512014Y-89219642D01*
X139454871Y-89248214D01*
X139226300Y-89248214D01*
X139854871Y-88933928D02*
X139797728Y-89048214D01*
X114977257Y-104529457D02*
X115062971Y-104558028D01*
X115205828Y-104558028D01*
X115262971Y-104529457D01*
X115291542Y-104500885D01*
X115320114Y-104443742D01*
X115320114Y-104386600D01*
X115291542Y-104329457D01*
X115262971Y-104300885D01*
X115205828Y-104272314D01*
X115091542Y-104243742D01*
X115034400Y-104215171D01*
X115005828Y-104186600D01*
X114977257Y-104129457D01*
X114977257Y-104072314D01*
X115005828Y-104015171D01*
X115034400Y-103986600D01*
X115091542Y-103958028D01*
X115234400Y-103958028D01*
X115320114Y-103986600D01*
X115891542Y-104558028D02*
X115548685Y-104558028D01*
X115720114Y-104558028D02*
X115720114Y-103958028D01*
X115662971Y-104043742D01*
X115605828Y-104100885D01*
X115548685Y-104129457D01*
X102038300Y-97214257D02*
X102124014Y-97242828D01*
X102266871Y-97242828D01*
X102324014Y-97214257D01*
X102352585Y-97185685D01*
X102381157Y-97128542D01*
X102381157Y-97071400D01*
X102352585Y-97014257D01*
X102324014Y-96985685D01*
X102266871Y-96957114D01*
X102152585Y-96928542D01*
X102095442Y-96899971D01*
X102066871Y-96871400D01*
X102038300Y-96814257D01*
X102038300Y-96757114D01*
X102066871Y-96699971D01*
X102095442Y-96671400D01*
X102152585Y-96642828D01*
X102295442Y-96642828D01*
X102381157Y-96671400D01*
X102952585Y-97242828D02*
X102609728Y-97242828D01*
X102781157Y-97242828D02*
X102781157Y-96642828D01*
X102724014Y-96728542D01*
X102666871Y-96785685D01*
X102609728Y-96814257D01*
X103238300Y-96642828D02*
X103181157Y-96757114D01*
X126704717Y-106529068D02*
X126704717Y-105929068D01*
X126933288Y-105929068D01*
X126990431Y-105957640D01*
X127019002Y-105986211D01*
X127047574Y-106043354D01*
X127047574Y-106129068D01*
X127019002Y-106186211D01*
X126990431Y-106214782D01*
X126933288Y-106243354D01*
X126704717Y-106243354D01*
X120490952Y-125597142D02*
X120443333Y-125644761D01*
X120300476Y-125692380D01*
X120205238Y-125692380D01*
X120062380Y-125644761D01*
X119967142Y-125549523D01*
X119919523Y-125454285D01*
X119871904Y-125263809D01*
X119871904Y-125120952D01*
X119919523Y-124930476D01*
X119967142Y-124835238D01*
X120062380Y-124740000D01*
X120205238Y-124692380D01*
X120300476Y-124692380D01*
X120443333Y-124740000D01*
X120490952Y-124787619D01*
X121443333Y-125692380D02*
X120871904Y-125692380D01*
X121157619Y-125692380D02*
X121157619Y-124692380D01*
X121062380Y-124835238D01*
X120967142Y-124930476D01*
X120871904Y-124978095D01*
X122062380Y-124692380D02*
X122157619Y-124692380D01*
X122252857Y-124740000D01*
X122300476Y-124787619D01*
X122348095Y-124882857D01*
X122395714Y-125073333D01*
X122395714Y-125311428D01*
X122348095Y-125501904D01*
X122300476Y-125597142D01*
X122252857Y-125644761D01*
X122157619Y-125692380D01*
X122062380Y-125692380D01*
X121967142Y-125644761D01*
X121919523Y-125597142D01*
X121871904Y-125501904D01*
X121824285Y-125311428D01*
X121824285Y-125073333D01*
X121871904Y-124882857D01*
X121919523Y-124787619D01*
X121967142Y-124740000D01*
X122062380Y-124692380D01*
X123348095Y-125692380D02*
X122776666Y-125692380D01*
X123062380Y-125692380D02*
X123062380Y-124692380D01*
X122967142Y-124835238D01*
X122871904Y-124930476D01*
X122776666Y-124978095D01*
X120490952Y-131287142D02*
X120443333Y-131334761D01*
X120300476Y-131382380D01*
X120205238Y-131382380D01*
X120062380Y-131334761D01*
X119967142Y-131239523D01*
X119919523Y-131144285D01*
X119871904Y-130953809D01*
X119871904Y-130810952D01*
X119919523Y-130620476D01*
X119967142Y-130525238D01*
X120062380Y-130430000D01*
X120205238Y-130382380D01*
X120300476Y-130382380D01*
X120443333Y-130430000D01*
X120490952Y-130477619D01*
X121443333Y-131382380D02*
X120871904Y-131382380D01*
X121157619Y-131382380D02*
X121157619Y-130382380D01*
X121062380Y-130525238D01*
X120967142Y-130620476D01*
X120871904Y-130668095D01*
X122062380Y-130382380D02*
X122157619Y-130382380D01*
X122252857Y-130430000D01*
X122300476Y-130477619D01*
X122348095Y-130572857D01*
X122395714Y-130763333D01*
X122395714Y-131001428D01*
X122348095Y-131191904D01*
X122300476Y-131287142D01*
X122252857Y-131334761D01*
X122157619Y-131382380D01*
X122062380Y-131382380D01*
X121967142Y-131334761D01*
X121919523Y-131287142D01*
X121871904Y-131191904D01*
X121824285Y-131001428D01*
X121824285Y-130763333D01*
X121871904Y-130572857D01*
X121919523Y-130477619D01*
X121967142Y-130430000D01*
X122062380Y-130382380D01*
X123348095Y-131382380D02*
X122776666Y-131382380D01*
X123062380Y-131382380D02*
X123062380Y-130382380D01*
X122967142Y-130525238D01*
X122871904Y-130620476D01*
X122776666Y-130668095D01*
X106140952Y-128902380D02*
X105664761Y-128902380D01*
X105664761Y-127902380D01*
X106998095Y-128902380D02*
X106426666Y-128902380D01*
X106712380Y-128902380D02*
X106712380Y-127902380D01*
X106617142Y-128045238D01*
X106521904Y-128140476D01*
X106426666Y-128188095D01*
X107617142Y-127902380D02*
X107712380Y-127902380D01*
X107807619Y-127950000D01*
X107855238Y-127997619D01*
X107902857Y-128092857D01*
X107950476Y-128283333D01*
X107950476Y-128521428D01*
X107902857Y-128711904D01*
X107855238Y-128807142D01*
X107807619Y-128854761D01*
X107712380Y-128902380D01*
X107617142Y-128902380D01*
X107521904Y-128854761D01*
X107474285Y-128807142D01*
X107426666Y-128711904D01*
X107379047Y-128521428D01*
X107379047Y-128283333D01*
X107426666Y-128092857D01*
X107474285Y-127997619D01*
X107521904Y-127950000D01*
X107617142Y-127902380D01*
X108331428Y-127997619D02*
X108379047Y-127950000D01*
X108474285Y-127902380D01*
X108712380Y-127902380D01*
X108807619Y-127950000D01*
X108855238Y-127997619D01*
X108902857Y-128092857D01*
X108902857Y-128188095D01*
X108855238Y-128330952D01*
X108283809Y-128902380D01*
X108902857Y-128902380D01*
D11*
X141190000Y-101010000D02*
G75*
G03*
X141190000Y-101010000I-19050000J0D01*
G01*
X131665000Y-101010000D02*
G75*
G03*
X131665000Y-101010000I-9525000J0D01*
G01*
D10*
X127720000Y-127610000D02*
X116520000Y-127610000D01*
X127720000Y-123110000D02*
X127720000Y-127610000D01*
X116520000Y-123110000D02*
X127720000Y-123110000D01*
X116520000Y-127610000D02*
X116520000Y-123110000D01*
X127720000Y-133300000D02*
X116520000Y-133300000D01*
X116520000Y-128800000D02*
X127720000Y-128800000D01*
X127720000Y-128800000D02*
X127720000Y-133300000D01*
X116520000Y-133300000D02*
X116520000Y-128800000D01*
D12*
X124726660Y-75710480D03*
X119809220Y-75710480D03*
X130368500Y-123191000D03*
X119050000Y-151050000D03*
X124250000Y-134050000D03*
X130393900Y-127661400D03*
X125050000Y-144050000D03*
X120050000Y-123050000D03*
X119050000Y-144050000D03*
X119850000Y-134050000D03*
X125050000Y-151050000D03*
X124050000Y-123050000D03*
D13*
X139704100Y-91307200D03*
X128482380Y-106816440D03*
D14*
X102409700Y-98800200D03*
X114100900Y-102953100D03*
D15*
X117770000Y-125360000D03*
X126470000Y-125360000D03*
X117770000Y-131050000D03*
X126470000Y-131050000D03*
D16*
X107300000Y-132280000D03*
X107300000Y-136630000D03*
D14*
X107300000Y-120630000D03*
X107300000Y-124980000D03*
%LPC*%
D12*
X124726660Y-75710480D03*
D17*
X122240000Y-71580000D03*
D12*
X119809220Y-75710480D03*
D14*
X122240000Y-81970000D03*
D12*
X130368500Y-123191000D03*
X119050000Y-151050000D03*
X124250000Y-134050000D03*
X130393900Y-127661400D03*
X125050000Y-144050000D03*
X120050000Y-123050000D03*
X119050000Y-144050000D03*
X119850000Y-134050000D03*
X125050000Y-151050000D03*
X124050000Y-123050000D03*
D17*
X137210020Y-125212040D03*
D18*
X137050000Y-125050000D03*
D17*
X137050000Y-119050000D03*
X137050000Y-131050000D03*
X127450000Y-138050000D03*
D19*
X122144880Y-138131280D03*
D17*
X116650000Y-138050000D03*
D20*
X122050000Y-138050000D03*
D13*
X139704100Y-91307200D03*
X128482380Y-106816440D03*
D14*
X102409700Y-98800200D03*
X114100900Y-102953100D03*
D21*
X116870000Y-93120000D03*
X111300000Y-85260000D03*
X131570000Y-101260000D03*
X141170000Y-101260000D03*
X116900000Y-108990000D03*
X111660000Y-116900000D03*
D22*
X103420000Y-66650000D03*
X102050000Y-66210000D03*
X102720000Y-66480000D03*
X102720000Y-67570000D03*
X106250000Y-67010000D03*
X105500000Y-67010000D03*
X104750000Y-67010000D03*
X103410000Y-67390000D03*
X110000000Y-67010000D03*
X110750000Y-67010000D03*
X111500000Y-67010000D03*
X112250000Y-67010000D03*
X109250000Y-67000000D03*
X108500000Y-67000000D03*
X107750000Y-67000000D03*
X107000000Y-67000000D03*
X119030000Y-67030000D03*
X119780000Y-67030000D03*
X120530000Y-67030000D03*
X121280000Y-67030000D03*
X124280000Y-67040000D03*
X123530000Y-67040000D03*
X122780000Y-67040000D03*
X122030000Y-67040000D03*
X116030000Y-67040000D03*
X116780000Y-67040000D03*
X117530000Y-67040000D03*
X118280000Y-67040000D03*
X115280000Y-67030000D03*
X114530000Y-67030000D03*
X113780000Y-67030000D03*
X113030000Y-67030000D03*
X137060000Y-67050000D03*
X137810000Y-67050000D03*
X138560000Y-67050000D03*
X139310000Y-67050000D03*
X131030000Y-67020000D03*
X131780000Y-67020000D03*
X132530000Y-67020000D03*
X133280000Y-67020000D03*
X136280000Y-67030000D03*
X135530000Y-67030000D03*
X134780000Y-67030000D03*
X134030000Y-67030000D03*
X128030000Y-67030000D03*
X128780000Y-67030000D03*
X129530000Y-67030000D03*
X130280000Y-67030000D03*
X127280000Y-67020000D03*
X126530000Y-67020000D03*
X125780000Y-67020000D03*
X125030000Y-67020000D03*
X102040000Y-67830000D03*
X104020000Y-67020000D03*
X101430000Y-65810000D03*
X101400000Y-68170000D03*
X100880000Y-65300000D03*
X100810000Y-68610000D03*
X100420000Y-64730000D03*
X100400000Y-69230000D03*
X100380000Y-59600000D03*
X100790000Y-58980000D03*
X101300000Y-58460000D03*
X104000000Y-57390000D03*
X101880000Y-58010000D03*
X103280000Y-57530000D03*
X102560000Y-57700000D03*
X143610000Y-64440000D03*
X143200000Y-65060000D03*
X142690000Y-65580000D03*
X139990000Y-66650000D03*
X142110000Y-66030000D03*
X140710000Y-66510000D03*
X141430000Y-66340000D03*
X143600000Y-151370000D03*
X143190000Y-151990000D03*
X142680000Y-152510000D03*
X139980000Y-153580000D03*
X142100000Y-152960000D03*
X140700000Y-153440000D03*
X141420000Y-153270000D03*
D21*
X138180000Y-61900000D03*
X132480000Y-61840000D03*
D19*
X105000000Y-62000000D03*
X111000000Y-62000000D03*
X117000000Y-62000000D03*
D22*
X143590000Y-67000000D03*
X142860000Y-67020000D03*
X142120000Y-67020000D03*
X100450000Y-67000000D03*
X101190000Y-67000000D03*
X101920000Y-67000000D03*
D14*
X122150000Y-100990000D03*
D15*
X117770000Y-125360000D03*
X126470000Y-125360000D03*
D21*
X102600000Y-148000000D03*
X102600000Y-141100000D03*
X112200000Y-141100000D03*
X126840000Y-61960000D03*
X134170000Y-77390000D03*
X130200000Y-70580000D03*
X112200000Y-148000000D03*
X102600000Y-134400000D03*
X112200000Y-134400000D03*
D15*
X117770000Y-131050000D03*
X126470000Y-131050000D03*
D16*
X107300000Y-132280000D03*
X107300000Y-136630000D03*
D14*
X107300000Y-120630000D03*
X107300000Y-124980000D03*
D15*
X136667198Y-82994648D03*
X140362921Y-85509630D03*
D22*
X141410000Y-57720000D03*
X140690000Y-57550000D03*
X142090000Y-58030000D03*
X139970000Y-57410000D03*
X142670000Y-58480000D03*
X143180000Y-59000000D03*
X143590000Y-59620000D03*
X143600000Y-69610000D03*
X143190000Y-68990000D03*
X142680000Y-68470000D03*
X139980000Y-67400000D03*
X142100000Y-68020000D03*
X140700000Y-67540000D03*
X141420000Y-67710000D03*
X102590000Y-153260000D03*
X103310000Y-153430000D03*
X101910000Y-152950000D03*
X104030000Y-153570000D03*
X101330000Y-152500000D03*
X100820000Y-151980000D03*
X100410000Y-151360000D03*
M02*
