M48
; DRILL file {KiCad (6.0.4-0)} date Wednesday, July 20, 2022 at 07:57:24 AM
; FORMAT={-:-/ absolute / metric / decimal}
; #@! TF.CreationDate,2022-07-20T07:57:24-04:00
; #@! TF.GenerationSoftware,Kicad,Pcbnew,(6.0.4-0)
; #@! TF.FileFunction,NonPlated,1,2,NPTH
FMAT,2
METRIC
; #@! TA.AperFunction,NonPlated,NPTH,ComponentDrill
T1C0.500
; #@! TA.AperFunction,NonPlated,NPTH,ComponentDrill
T2C2.450
; #@! TA.AperFunction,NonPlated,NPTH,ComponentDrill
T3C2.500
; #@! TA.AperFunction,NonPlated,NPTH,ComponentDrill
T4C3.000
; #@! TA.AperFunction,NonPlated,NPTH,ComponentDrill
T5C3.500
%
G90
G05
T1
X100.38Y-59.6
X100.4Y-69.23
X100.41Y-151.36
X100.42Y-64.73
X100.45Y-67.0
X100.79Y-58.98
X100.81Y-68.61
X100.82Y-151.98
X100.88Y-65.3
X101.19Y-67.0
X101.3Y-58.46
X101.33Y-152.5
X101.4Y-68.17
X101.43Y-65.81
X101.88Y-58.01
X101.91Y-152.95
X101.92Y-67.0
X102.04Y-67.83
X102.05Y-66.21
X102.56Y-57.7
X102.59Y-153.26
X102.72Y-66.48
X102.72Y-67.57
X103.28Y-57.53
X103.31Y-153.43
X103.41Y-67.39
X103.42Y-66.65
X104.0Y-57.39
X104.02Y-67.02
X104.03Y-153.57
X104.75Y-67.01
X105.5Y-67.01
X106.25Y-67.01
X107.0Y-67.0
X107.75Y-67.0
X108.5Y-67.0
X109.25Y-67.0
X110.0Y-67.01
X110.75Y-67.01
X111.5Y-67.01
X112.25Y-67.01
X113.03Y-67.03
X113.78Y-67.03
X114.53Y-67.03
X115.28Y-67.03
X116.03Y-67.04
X116.78Y-67.04
X117.53Y-67.04
X118.28Y-67.04
X119.03Y-67.03
X119.78Y-67.03
X120.53Y-67.03
X121.28Y-67.03
X122.03Y-67.04
X122.78Y-67.04
X123.53Y-67.04
X124.28Y-67.04
X125.03Y-67.02
X125.78Y-67.02
X126.53Y-67.02
X127.28Y-67.02
X128.03Y-67.03
X128.78Y-67.03
X129.53Y-67.03
X130.28Y-67.03
X131.03Y-67.02
X131.78Y-67.02
X132.53Y-67.02
X133.28Y-67.02
X134.03Y-67.03
X134.78Y-67.03
X135.53Y-67.03
X136.28Y-67.03
X137.06Y-67.05
X137.81Y-67.05
X138.56Y-67.05
X139.31Y-67.05
X139.97Y-57.41
X139.98Y-67.4
X139.98Y-153.58
X139.99Y-66.65
X140.69Y-57.55
X140.7Y-67.54
X140.7Y-153.44
X140.71Y-66.51
X141.41Y-57.72
X141.42Y-67.71
X141.42Y-153.27
X141.43Y-66.34
X142.09Y-58.03
X142.1Y-68.02
X142.1Y-152.96
X142.11Y-66.03
X142.12Y-67.02
X142.67Y-58.48
X142.68Y-68.47
X142.68Y-152.51
X142.69Y-65.58
X142.86Y-67.02
X143.18Y-59.0
X143.19Y-68.99
X143.19Y-151.99
X143.2Y-65.06
X143.59Y-59.62
X143.59Y-67.0
X143.6Y-69.61
X143.6Y-151.37
X143.61Y-64.44
T2
X105.0Y-62.0
X111.0Y-62.0
X117.0Y-62.0
T3
X119.05Y-144.05
X119.05Y-151.05
X119.809Y-75.71
X119.85Y-134.05
X120.05Y-123.05
X124.05Y-123.05
X124.25Y-134.05
X124.727Y-75.71
X125.05Y-144.05
X125.05Y-151.05
X130.368Y-123.191
X130.394Y-127.661
T4
X102.6Y-134.4
X102.6Y-141.1
X102.6Y-148.0
X111.3Y-85.26
X111.66Y-116.9
X112.2Y-134.4
X112.2Y-141.1
X112.2Y-148.0
X116.87Y-93.12
X116.9Y-108.99
X126.84Y-61.96
X130.2Y-70.58
X131.57Y-101.26
X132.48Y-61.84
X134.17Y-77.39
X138.18Y-61.9
X141.17Y-101.26
T5
X122.15Y-100.99
T0
M30
