%FSLAX45Y45*%
G04 Gerber Fmt 4.5, Leading zero omitted, Abs format (unit mm)*
G04 Created by KiCad (PCBNEW (6.0.4-0)) date 2022-07-20 07:57:26*
%MOMM*%
%LPD*%
G01*
G04 APERTURE LIST*
%TA.AperFunction,Profile*%
%ADD10C,0.150000*%
%TD*%
%ADD11C,0.200000*%
%ADD12C,0.092000*%
%ADD13C,0.101600*%
%ADD14C,0.150000*%
%ADD15C,0.210000*%
%ADD16C,0.245000*%
%ADD17C,0.250000*%
%ADD18C,0.300000*%
G04 APERTURE END LIST*
D10*
X10000000Y-5700000D02*
X14400000Y-5700000D01*
X14400000Y-5700000D02*
X14400000Y-15400000D01*
X14400000Y-15400000D02*
X10000000Y-15400000D01*
X10000000Y-15400000D02*
X10000000Y-5700000D01*
D11*
D12*
X11731000Y-12490000D02*
X11823000Y-12582000D01*
X11823000Y-12490000D02*
X11731000Y-12582000D01*
X11731000Y-13059000D02*
X11823000Y-13151000D01*
X11823000Y-13059000D02*
X11731000Y-13151000D01*
X12601000Y-12490000D02*
X12693000Y-12582000D01*
X12693000Y-12490000D02*
X12601000Y-12582000D01*
X12601000Y-13059000D02*
X12693000Y-13151000D01*
X12693000Y-13059000D02*
X12601000Y-13151000D01*
D13*
X13717520Y-8299465D02*
G75*
G03*
X13717520Y-8299465I-50800J0D01*
G01*
X14087092Y-8550963D02*
G75*
G03*
X14087092Y-8550963I-50800J0D01*
G01*
D14*
X12205000Y-11230000D02*
X12205000Y-11380000D01*
X12130000Y-11305000D02*
X12280000Y-11305000D01*
D11*
X12294711Y-8267711D02*
X12294711Y-8126289D01*
X12153289Y-8126289D01*
X12153289Y-8267711D01*
X12294711Y-8267711D01*
D15*
X10240970Y-9985020D02*
X10345970Y-9880020D01*
X10240970Y-9775020D01*
X10135970Y-9880020D01*
X10240970Y-9985020D01*
X10730000Y-12168000D02*
X10835000Y-12063000D01*
X10730000Y-11958000D01*
X10625000Y-12063000D01*
X10730000Y-12168000D01*
X10730000Y-12603000D02*
X10835000Y-12498000D01*
X10730000Y-12393000D01*
X10625000Y-12498000D01*
X10730000Y-12603000D01*
X10730000Y-13333000D02*
X10835000Y-13228000D01*
X10730000Y-13123000D01*
X10625000Y-13228000D01*
X10730000Y-13333000D01*
X10730000Y-13768000D02*
X10835000Y-13663000D01*
X10730000Y-13558000D01*
X10625000Y-13663000D01*
X10730000Y-13768000D01*
X11410090Y-10400310D02*
X11515090Y-10295310D01*
X11410090Y-10190310D01*
X11305090Y-10295310D01*
X11410090Y-10400310D01*
X12848238Y-10786644D02*
X12953238Y-10681644D01*
X12848238Y-10576644D01*
X12743238Y-10681644D01*
X12848238Y-10786644D01*
X13970410Y-9235720D02*
X14075410Y-9130720D01*
X13970410Y-9025720D01*
X13865410Y-9130720D01*
X13970410Y-9235720D01*
D16*
X12101500Y-7035500D02*
X12346500Y-7280500D01*
X12346500Y-7035500D02*
X12101500Y-7280500D01*
X12346500Y-7158000D02*
G75*
G03*
X12346500Y-7158000I-122500J0D01*
G01*
D17*
X11540000Y-13680000D02*
X11790000Y-13930000D01*
X11790000Y-13680000D02*
X11540000Y-13930000D01*
X11665000Y-13680000D02*
X11665000Y-13930000D01*
X11540000Y-13805000D02*
X11790000Y-13805000D01*
X12620000Y-13680000D02*
X12870000Y-13930000D01*
X12870000Y-13680000D02*
X12620000Y-13930000D01*
X12745000Y-13680000D02*
X12745000Y-13930000D01*
X12620000Y-13805000D02*
X12870000Y-13805000D01*
X13580000Y-11780000D02*
X13830000Y-12030000D01*
X13830000Y-11780000D02*
X13580000Y-12030000D01*
X13705000Y-11780000D02*
X13705000Y-12030000D01*
X13580000Y-11905000D02*
X13830000Y-11905000D01*
X13580000Y-12980000D02*
X13830000Y-13230000D01*
X13830000Y-12980000D02*
X13580000Y-13230000D01*
X13705000Y-12980000D02*
X13705000Y-13230000D01*
X13580000Y-13105000D02*
X13830000Y-13105000D01*
X13596002Y-12396204D02*
X13846002Y-12646204D01*
X13846002Y-12396204D02*
X13596002Y-12646204D01*
X13721002Y-12396204D02*
X13721002Y-12646204D01*
X13596002Y-12521204D02*
X13846002Y-12521204D01*
D18*
X12064488Y-13663128D02*
X12364488Y-13963128D01*
X12364488Y-13663128D02*
X12064488Y-13963128D01*
X12320555Y-13919195D02*
X12320555Y-13707061D01*
X12108421Y-13707061D01*
X12108421Y-13919195D01*
X12320555Y-13919195D01*
D11*
X10250119Y-15717976D02*
X10250119Y-15517976D01*
X10297738Y-15517976D01*
X10326310Y-15527500D01*
X10345357Y-15546548D01*
X10354881Y-15565595D01*
X10364405Y-15603690D01*
X10364405Y-15632262D01*
X10354881Y-15670357D01*
X10345357Y-15689405D01*
X10326310Y-15708452D01*
X10297738Y-15717976D01*
X10250119Y-15717976D01*
X10450119Y-15717976D02*
X10450119Y-15584643D01*
X10450119Y-15622738D02*
X10459643Y-15603690D01*
X10469167Y-15594167D01*
X10488214Y-15584643D01*
X10507262Y-15584643D01*
X10573929Y-15717976D02*
X10573929Y-15584643D01*
X10573929Y-15517976D02*
X10564405Y-15527500D01*
X10573929Y-15537024D01*
X10583452Y-15527500D01*
X10573929Y-15517976D01*
X10573929Y-15537024D01*
X10697738Y-15717976D02*
X10678690Y-15708452D01*
X10669167Y-15689405D01*
X10669167Y-15517976D01*
X10802500Y-15717976D02*
X10783452Y-15708452D01*
X10773929Y-15689405D01*
X10773929Y-15517976D01*
X11031071Y-15717976D02*
X11031071Y-15517976D01*
X11097738Y-15660833D01*
X11164405Y-15517976D01*
X11164405Y-15717976D01*
X11345357Y-15717976D02*
X11345357Y-15613214D01*
X11335833Y-15594167D01*
X11316786Y-15584643D01*
X11278690Y-15584643D01*
X11259643Y-15594167D01*
X11345357Y-15708452D02*
X11326309Y-15717976D01*
X11278690Y-15717976D01*
X11259643Y-15708452D01*
X11250119Y-15689405D01*
X11250119Y-15670357D01*
X11259643Y-15651309D01*
X11278690Y-15641786D01*
X11326309Y-15641786D01*
X11345357Y-15632262D01*
X11440595Y-15584643D02*
X11440595Y-15784643D01*
X11440595Y-15594167D02*
X11459643Y-15584643D01*
X11497738Y-15584643D01*
X11516786Y-15594167D01*
X11526309Y-15603690D01*
X11535833Y-15622738D01*
X11535833Y-15679881D01*
X11526309Y-15698928D01*
X11516786Y-15708452D01*
X11497738Y-15717976D01*
X11459643Y-15717976D01*
X11440595Y-15708452D01*
X11621548Y-15698928D02*
X11631071Y-15708452D01*
X11621548Y-15717976D01*
X11612024Y-15708452D01*
X11621548Y-15698928D01*
X11621548Y-15717976D01*
X11621548Y-15594167D02*
X11631071Y-15603690D01*
X11621548Y-15613214D01*
X11612024Y-15603690D01*
X11621548Y-15594167D01*
X11621548Y-15613214D01*
D12*
X9900500Y-16001500D02*
X9992500Y-16093500D01*
X9992500Y-16001500D02*
X9900500Y-16093500D01*
D11*
X10288214Y-15937976D02*
X10307262Y-15937976D01*
X10326310Y-15947500D01*
X10335833Y-15957024D01*
X10345357Y-15976071D01*
X10354881Y-16014167D01*
X10354881Y-16061786D01*
X10345357Y-16099881D01*
X10335833Y-16118928D01*
X10326310Y-16128452D01*
X10307262Y-16137976D01*
X10288214Y-16137976D01*
X10269167Y-16128452D01*
X10259643Y-16118928D01*
X10250119Y-16099881D01*
X10240595Y-16061786D01*
X10240595Y-16014167D01*
X10250119Y-15976071D01*
X10259643Y-15957024D01*
X10269167Y-15947500D01*
X10288214Y-15937976D01*
X10440595Y-16118928D02*
X10450119Y-16128452D01*
X10440595Y-16137976D01*
X10431071Y-16128452D01*
X10440595Y-16118928D01*
X10440595Y-16137976D01*
X10545357Y-16137976D02*
X10583452Y-16137976D01*
X10602500Y-16128452D01*
X10612024Y-16118928D01*
X10631071Y-16090357D01*
X10640595Y-16052262D01*
X10640595Y-15976071D01*
X10631071Y-15957024D01*
X10621548Y-15947500D01*
X10602500Y-15937976D01*
X10564405Y-15937976D01*
X10545357Y-15947500D01*
X10535833Y-15957024D01*
X10526310Y-15976071D01*
X10526310Y-16023690D01*
X10535833Y-16042738D01*
X10545357Y-16052262D01*
X10564405Y-16061786D01*
X10602500Y-16061786D01*
X10621548Y-16052262D01*
X10631071Y-16042738D01*
X10640595Y-16023690D01*
X10716786Y-15957024D02*
X10726310Y-15947500D01*
X10745357Y-15937976D01*
X10792976Y-15937976D01*
X10812024Y-15947500D01*
X10821548Y-15957024D01*
X10831071Y-15976071D01*
X10831071Y-15995119D01*
X10821548Y-16023690D01*
X10707262Y-16137976D01*
X10831071Y-16137976D01*
X10954881Y-15937976D02*
X10973929Y-15937976D01*
X10992976Y-15947500D01*
X11002500Y-15957024D01*
X11012024Y-15976071D01*
X11021548Y-16014167D01*
X11021548Y-16061786D01*
X11012024Y-16099881D01*
X11002500Y-16118928D01*
X10992976Y-16128452D01*
X10973929Y-16137976D01*
X10954881Y-16137976D01*
X10935833Y-16128452D01*
X10926310Y-16118928D01*
X10916786Y-16099881D01*
X10907262Y-16061786D01*
X10907262Y-16014167D01*
X10916786Y-15976071D01*
X10926310Y-15957024D01*
X10935833Y-15947500D01*
X10954881Y-15937976D01*
X11107262Y-16137976D02*
X11107262Y-16004643D01*
X11107262Y-16023690D02*
X11116786Y-16014167D01*
X11135833Y-16004643D01*
X11164405Y-16004643D01*
X11183452Y-16014167D01*
X11192976Y-16033214D01*
X11192976Y-16137976D01*
X11192976Y-16033214D02*
X11202500Y-16014167D01*
X11221548Y-16004643D01*
X11250119Y-16004643D01*
X11269167Y-16014167D01*
X11278690Y-16033214D01*
X11278690Y-16137976D01*
X11373928Y-16137976D02*
X11373928Y-16004643D01*
X11373928Y-16023690D02*
X11383452Y-16014167D01*
X11402500Y-16004643D01*
X11431071Y-16004643D01*
X11450119Y-16014167D01*
X11459643Y-16033214D01*
X11459643Y-16137976D01*
X11459643Y-16033214D02*
X11469167Y-16014167D01*
X11488214Y-16004643D01*
X11516786Y-16004643D01*
X11535833Y-16014167D01*
X11545357Y-16033214D01*
X11545357Y-16137976D01*
X11935833Y-15928452D02*
X11764405Y-16185595D01*
X12192976Y-15937976D02*
X12212024Y-15937976D01*
X12231071Y-15947500D01*
X12240595Y-15957024D01*
X12250119Y-15976071D01*
X12259643Y-16014167D01*
X12259643Y-16061786D01*
X12250119Y-16099881D01*
X12240595Y-16118928D01*
X12231071Y-16128452D01*
X12212024Y-16137976D01*
X12192976Y-16137976D01*
X12173928Y-16128452D01*
X12164405Y-16118928D01*
X12154881Y-16099881D01*
X12145357Y-16061786D01*
X12145357Y-16014167D01*
X12154881Y-15976071D01*
X12164405Y-15957024D01*
X12173928Y-15947500D01*
X12192976Y-15937976D01*
X12345357Y-16118928D02*
X12354881Y-16128452D01*
X12345357Y-16137976D01*
X12335833Y-16128452D01*
X12345357Y-16118928D01*
X12345357Y-16137976D01*
X12478690Y-15937976D02*
X12497738Y-15937976D01*
X12516786Y-15947500D01*
X12526309Y-15957024D01*
X12535833Y-15976071D01*
X12545357Y-16014167D01*
X12545357Y-16061786D01*
X12535833Y-16099881D01*
X12526309Y-16118928D01*
X12516786Y-16128452D01*
X12497738Y-16137976D01*
X12478690Y-16137976D01*
X12459643Y-16128452D01*
X12450119Y-16118928D01*
X12440595Y-16099881D01*
X12431071Y-16061786D01*
X12431071Y-16014167D01*
X12440595Y-15976071D01*
X12450119Y-15957024D01*
X12459643Y-15947500D01*
X12478690Y-15937976D01*
X12612024Y-15937976D02*
X12735833Y-15937976D01*
X12669167Y-16014167D01*
X12697738Y-16014167D01*
X12716786Y-16023690D01*
X12726309Y-16033214D01*
X12735833Y-16052262D01*
X12735833Y-16099881D01*
X12726309Y-16118928D01*
X12716786Y-16128452D01*
X12697738Y-16137976D01*
X12640595Y-16137976D01*
X12621548Y-16128452D01*
X12612024Y-16118928D01*
X12907262Y-15937976D02*
X12869167Y-15937976D01*
X12850119Y-15947500D01*
X12840595Y-15957024D01*
X12821548Y-15985595D01*
X12812024Y-16023690D01*
X12812024Y-16099881D01*
X12821548Y-16118928D01*
X12831071Y-16128452D01*
X12850119Y-16137976D01*
X12888214Y-16137976D01*
X12907262Y-16128452D01*
X12916786Y-16118928D01*
X12926309Y-16099881D01*
X12926309Y-16052262D01*
X12916786Y-16033214D01*
X12907262Y-16023690D01*
X12888214Y-16014167D01*
X12850119Y-16014167D01*
X12831071Y-16023690D01*
X12821548Y-16033214D01*
X12812024Y-16052262D01*
X13002500Y-15957024D02*
X13012024Y-15947500D01*
X13031071Y-15937976D01*
X13078690Y-15937976D01*
X13097738Y-15947500D01*
X13107262Y-15957024D01*
X13116786Y-15976071D01*
X13116786Y-15995119D01*
X13107262Y-16023690D01*
X12992976Y-16137976D01*
X13116786Y-16137976D01*
X13192976Y-15937976D02*
X13192976Y-15976071D01*
X13269167Y-15937976D02*
X13269167Y-15976071D01*
X13564405Y-16214167D02*
X13554881Y-16204643D01*
X13535833Y-16176071D01*
X13526309Y-16157024D01*
X13516786Y-16128452D01*
X13507262Y-16080833D01*
X13507262Y-16042738D01*
X13516786Y-15995119D01*
X13526309Y-15966548D01*
X13535833Y-15947500D01*
X13554881Y-15918928D01*
X13564405Y-15909405D01*
X13726309Y-16004643D02*
X13726309Y-16137976D01*
X13678690Y-15928452D02*
X13631071Y-16071309D01*
X13754881Y-16071309D01*
X13983452Y-16137976D02*
X13983452Y-15937976D01*
X14069167Y-16137976D02*
X14069167Y-16033214D01*
X14059643Y-16014167D01*
X14040595Y-16004643D01*
X14012024Y-16004643D01*
X13992976Y-16014167D01*
X13983452Y-16023690D01*
X14192976Y-16137976D02*
X14173928Y-16128452D01*
X14164405Y-16118928D01*
X14154881Y-16099881D01*
X14154881Y-16042738D01*
X14164405Y-16023690D01*
X14173928Y-16014167D01*
X14192976Y-16004643D01*
X14221548Y-16004643D01*
X14240595Y-16014167D01*
X14250119Y-16023690D01*
X14259643Y-16042738D01*
X14259643Y-16099881D01*
X14250119Y-16118928D01*
X14240595Y-16128452D01*
X14221548Y-16137976D01*
X14192976Y-16137976D01*
X14373928Y-16137976D02*
X14354881Y-16128452D01*
X14345357Y-16109405D01*
X14345357Y-15937976D01*
X14526309Y-16128452D02*
X14507262Y-16137976D01*
X14469167Y-16137976D01*
X14450119Y-16128452D01*
X14440595Y-16109405D01*
X14440595Y-16033214D01*
X14450119Y-16014167D01*
X14469167Y-16004643D01*
X14507262Y-16004643D01*
X14526309Y-16014167D01*
X14535833Y-16033214D01*
X14535833Y-16052262D01*
X14440595Y-16071309D01*
X14612024Y-16128452D02*
X14631071Y-16137976D01*
X14669167Y-16137976D01*
X14688214Y-16128452D01*
X14697738Y-16109405D01*
X14697738Y-16099881D01*
X14688214Y-16080833D01*
X14669167Y-16071309D01*
X14640595Y-16071309D01*
X14621548Y-16061786D01*
X14612024Y-16042738D01*
X14612024Y-16033214D01*
X14621548Y-16014167D01*
X14640595Y-16004643D01*
X14669167Y-16004643D01*
X14688214Y-16014167D01*
X14764405Y-16214167D02*
X14773928Y-16204643D01*
X14792976Y-16176071D01*
X14802500Y-16157024D01*
X14812024Y-16128452D01*
X14821548Y-16080833D01*
X14821548Y-16042738D01*
X14812024Y-15995119D01*
X14802500Y-15966548D01*
X14792976Y-15947500D01*
X14773928Y-15918928D01*
X14764405Y-15909405D01*
D13*
X9992500Y-16311500D02*
G75*
G03*
X9992500Y-16311500I-50800J0D01*
G01*
D11*
X10354881Y-16401976D02*
X10240595Y-16401976D01*
X10297738Y-16401976D02*
X10297738Y-16201976D01*
X10278690Y-16230548D01*
X10259643Y-16249595D01*
X10240595Y-16259119D01*
X10440595Y-16382928D02*
X10450119Y-16392452D01*
X10440595Y-16401976D01*
X10431071Y-16392452D01*
X10440595Y-16382928D01*
X10440595Y-16401976D01*
X10573929Y-16201976D02*
X10592976Y-16201976D01*
X10612024Y-16211500D01*
X10621548Y-16221024D01*
X10631071Y-16240071D01*
X10640595Y-16278167D01*
X10640595Y-16325786D01*
X10631071Y-16363881D01*
X10621548Y-16382928D01*
X10612024Y-16392452D01*
X10592976Y-16401976D01*
X10573929Y-16401976D01*
X10554881Y-16392452D01*
X10545357Y-16382928D01*
X10535833Y-16363881D01*
X10526310Y-16325786D01*
X10526310Y-16278167D01*
X10535833Y-16240071D01*
X10545357Y-16221024D01*
X10554881Y-16211500D01*
X10573929Y-16201976D01*
X10831071Y-16401976D02*
X10716786Y-16401976D01*
X10773929Y-16401976D02*
X10773929Y-16201976D01*
X10754881Y-16230548D01*
X10735833Y-16249595D01*
X10716786Y-16259119D01*
X11002500Y-16201976D02*
X10964405Y-16201976D01*
X10945357Y-16211500D01*
X10935833Y-16221024D01*
X10916786Y-16249595D01*
X10907262Y-16287690D01*
X10907262Y-16363881D01*
X10916786Y-16382928D01*
X10926310Y-16392452D01*
X10945357Y-16401976D01*
X10983452Y-16401976D01*
X11002500Y-16392452D01*
X11012024Y-16382928D01*
X11021548Y-16363881D01*
X11021548Y-16316262D01*
X11012024Y-16297214D01*
X11002500Y-16287690D01*
X10983452Y-16278167D01*
X10945357Y-16278167D01*
X10926310Y-16287690D01*
X10916786Y-16297214D01*
X10907262Y-16316262D01*
X11107262Y-16401976D02*
X11107262Y-16268643D01*
X11107262Y-16287690D02*
X11116786Y-16278167D01*
X11135833Y-16268643D01*
X11164405Y-16268643D01*
X11183452Y-16278167D01*
X11192976Y-16297214D01*
X11192976Y-16401976D01*
X11192976Y-16297214D02*
X11202500Y-16278167D01*
X11221548Y-16268643D01*
X11250119Y-16268643D01*
X11269167Y-16278167D01*
X11278690Y-16297214D01*
X11278690Y-16401976D01*
X11373928Y-16401976D02*
X11373928Y-16268643D01*
X11373928Y-16287690D02*
X11383452Y-16278167D01*
X11402500Y-16268643D01*
X11431071Y-16268643D01*
X11450119Y-16278167D01*
X11459643Y-16297214D01*
X11459643Y-16401976D01*
X11459643Y-16297214D02*
X11469167Y-16278167D01*
X11488214Y-16268643D01*
X11516786Y-16268643D01*
X11535833Y-16278167D01*
X11545357Y-16297214D01*
X11545357Y-16401976D01*
X11935833Y-16192452D02*
X11764405Y-16449595D01*
X12192976Y-16201976D02*
X12212024Y-16201976D01*
X12231071Y-16211500D01*
X12240595Y-16221024D01*
X12250119Y-16240071D01*
X12259643Y-16278167D01*
X12259643Y-16325786D01*
X12250119Y-16363881D01*
X12240595Y-16382928D01*
X12231071Y-16392452D01*
X12212024Y-16401976D01*
X12192976Y-16401976D01*
X12173928Y-16392452D01*
X12164405Y-16382928D01*
X12154881Y-16363881D01*
X12145357Y-16325786D01*
X12145357Y-16278167D01*
X12154881Y-16240071D01*
X12164405Y-16221024D01*
X12173928Y-16211500D01*
X12192976Y-16201976D01*
X12345357Y-16382928D02*
X12354881Y-16392452D01*
X12345357Y-16401976D01*
X12335833Y-16392452D01*
X12345357Y-16382928D01*
X12345357Y-16401976D01*
X12478690Y-16201976D02*
X12497738Y-16201976D01*
X12516786Y-16211500D01*
X12526309Y-16221024D01*
X12535833Y-16240071D01*
X12545357Y-16278167D01*
X12545357Y-16325786D01*
X12535833Y-16363881D01*
X12526309Y-16382928D01*
X12516786Y-16392452D01*
X12497738Y-16401976D01*
X12478690Y-16401976D01*
X12459643Y-16392452D01*
X12450119Y-16382928D01*
X12440595Y-16363881D01*
X12431071Y-16325786D01*
X12431071Y-16278167D01*
X12440595Y-16240071D01*
X12450119Y-16221024D01*
X12459643Y-16211500D01*
X12478690Y-16201976D01*
X12716786Y-16268643D02*
X12716786Y-16401976D01*
X12669167Y-16192452D02*
X12621548Y-16335309D01*
X12745357Y-16335309D01*
X12859643Y-16201976D02*
X12878690Y-16201976D01*
X12897738Y-16211500D01*
X12907262Y-16221024D01*
X12916786Y-16240071D01*
X12926309Y-16278167D01*
X12926309Y-16325786D01*
X12916786Y-16363881D01*
X12907262Y-16382928D01*
X12897738Y-16392452D01*
X12878690Y-16401976D01*
X12859643Y-16401976D01*
X12840595Y-16392452D01*
X12831071Y-16382928D01*
X12821548Y-16363881D01*
X12812024Y-16325786D01*
X12812024Y-16278167D01*
X12821548Y-16240071D01*
X12831071Y-16221024D01*
X12840595Y-16211500D01*
X12859643Y-16201976D01*
X13050119Y-16201976D02*
X13069167Y-16201976D01*
X13088214Y-16211500D01*
X13097738Y-16221024D01*
X13107262Y-16240071D01*
X13116786Y-16278167D01*
X13116786Y-16325786D01*
X13107262Y-16363881D01*
X13097738Y-16382928D01*
X13088214Y-16392452D01*
X13069167Y-16401976D01*
X13050119Y-16401976D01*
X13031071Y-16392452D01*
X13021548Y-16382928D01*
X13012024Y-16363881D01*
X13002500Y-16325786D01*
X13002500Y-16278167D01*
X13012024Y-16240071D01*
X13021548Y-16221024D01*
X13031071Y-16211500D01*
X13050119Y-16201976D01*
X13192976Y-16201976D02*
X13192976Y-16240071D01*
X13269167Y-16201976D02*
X13269167Y-16240071D01*
X13564405Y-16478167D02*
X13554881Y-16468643D01*
X13535833Y-16440071D01*
X13526309Y-16421024D01*
X13516786Y-16392452D01*
X13507262Y-16344833D01*
X13507262Y-16306738D01*
X13516786Y-16259119D01*
X13526309Y-16230548D01*
X13535833Y-16211500D01*
X13554881Y-16182928D01*
X13564405Y-16173405D01*
X13631071Y-16221024D02*
X13640595Y-16211500D01*
X13659643Y-16201976D01*
X13707262Y-16201976D01*
X13726309Y-16211500D01*
X13735833Y-16221024D01*
X13745357Y-16240071D01*
X13745357Y-16259119D01*
X13735833Y-16287690D01*
X13621548Y-16401976D01*
X13745357Y-16401976D01*
X13983452Y-16401976D02*
X13983452Y-16201976D01*
X14069167Y-16401976D02*
X14069167Y-16297214D01*
X14059643Y-16278167D01*
X14040595Y-16268643D01*
X14012024Y-16268643D01*
X13992976Y-16278167D01*
X13983452Y-16287690D01*
X14192976Y-16401976D02*
X14173928Y-16392452D01*
X14164405Y-16382928D01*
X14154881Y-16363881D01*
X14154881Y-16306738D01*
X14164405Y-16287690D01*
X14173928Y-16278167D01*
X14192976Y-16268643D01*
X14221548Y-16268643D01*
X14240595Y-16278167D01*
X14250119Y-16287690D01*
X14259643Y-16306738D01*
X14259643Y-16363881D01*
X14250119Y-16382928D01*
X14240595Y-16392452D01*
X14221548Y-16401976D01*
X14192976Y-16401976D01*
X14373928Y-16401976D02*
X14354881Y-16392452D01*
X14345357Y-16373405D01*
X14345357Y-16201976D01*
X14526309Y-16392452D02*
X14507262Y-16401976D01*
X14469167Y-16401976D01*
X14450119Y-16392452D01*
X14440595Y-16373405D01*
X14440595Y-16297214D01*
X14450119Y-16278167D01*
X14469167Y-16268643D01*
X14507262Y-16268643D01*
X14526309Y-16278167D01*
X14535833Y-16297214D01*
X14535833Y-16316262D01*
X14440595Y-16335309D01*
X14612024Y-16392452D02*
X14631071Y-16401976D01*
X14669167Y-16401976D01*
X14688214Y-16392452D01*
X14697738Y-16373405D01*
X14697738Y-16363881D01*
X14688214Y-16344833D01*
X14669167Y-16335309D01*
X14640595Y-16335309D01*
X14621548Y-16325786D01*
X14612024Y-16306738D01*
X14612024Y-16297214D01*
X14621548Y-16278167D01*
X14640595Y-16268643D01*
X14669167Y-16268643D01*
X14688214Y-16278167D01*
X14764405Y-16478167D02*
X14773928Y-16468643D01*
X14792976Y-16440071D01*
X14802500Y-16421024D01*
X14812024Y-16392452D01*
X14821548Y-16344833D01*
X14821548Y-16306738D01*
X14812024Y-16259119D01*
X14802500Y-16230548D01*
X14792976Y-16211500D01*
X14773928Y-16182928D01*
X14764405Y-16173405D01*
D14*
X9917500Y-16500500D02*
X9917500Y-16650500D01*
X9842500Y-16575500D02*
X9992500Y-16575500D01*
D11*
X10354881Y-16665976D02*
X10240595Y-16665976D01*
X10297738Y-16665976D02*
X10297738Y-16465976D01*
X10278690Y-16494548D01*
X10259643Y-16513595D01*
X10240595Y-16523119D01*
X10440595Y-16646928D02*
X10450119Y-16656452D01*
X10440595Y-16665976D01*
X10431071Y-16656452D01*
X10440595Y-16646928D01*
X10440595Y-16665976D01*
X10631071Y-16465976D02*
X10535833Y-16465976D01*
X10526310Y-16561214D01*
X10535833Y-16551690D01*
X10554881Y-16542167D01*
X10602500Y-16542167D01*
X10621548Y-16551690D01*
X10631071Y-16561214D01*
X10640595Y-16580262D01*
X10640595Y-16627881D01*
X10631071Y-16646928D01*
X10621548Y-16656452D01*
X10602500Y-16665976D01*
X10554881Y-16665976D01*
X10535833Y-16656452D01*
X10526310Y-16646928D01*
X10764405Y-16465976D02*
X10783452Y-16465976D01*
X10802500Y-16475500D01*
X10812024Y-16485024D01*
X10821548Y-16504071D01*
X10831071Y-16542167D01*
X10831071Y-16589786D01*
X10821548Y-16627881D01*
X10812024Y-16646928D01*
X10802500Y-16656452D01*
X10783452Y-16665976D01*
X10764405Y-16665976D01*
X10745357Y-16656452D01*
X10735833Y-16646928D01*
X10726310Y-16627881D01*
X10716786Y-16589786D01*
X10716786Y-16542167D01*
X10726310Y-16504071D01*
X10735833Y-16485024D01*
X10745357Y-16475500D01*
X10764405Y-16465976D01*
X10954881Y-16465976D02*
X10973929Y-16465976D01*
X10992976Y-16475500D01*
X11002500Y-16485024D01*
X11012024Y-16504071D01*
X11021548Y-16542167D01*
X11021548Y-16589786D01*
X11012024Y-16627881D01*
X11002500Y-16646928D01*
X10992976Y-16656452D01*
X10973929Y-16665976D01*
X10954881Y-16665976D01*
X10935833Y-16656452D01*
X10926310Y-16646928D01*
X10916786Y-16627881D01*
X10907262Y-16589786D01*
X10907262Y-16542167D01*
X10916786Y-16504071D01*
X10926310Y-16485024D01*
X10935833Y-16475500D01*
X10954881Y-16465976D01*
X11107262Y-16665976D02*
X11107262Y-16532643D01*
X11107262Y-16551690D02*
X11116786Y-16542167D01*
X11135833Y-16532643D01*
X11164405Y-16532643D01*
X11183452Y-16542167D01*
X11192976Y-16561214D01*
X11192976Y-16665976D01*
X11192976Y-16561214D02*
X11202500Y-16542167D01*
X11221548Y-16532643D01*
X11250119Y-16532643D01*
X11269167Y-16542167D01*
X11278690Y-16561214D01*
X11278690Y-16665976D01*
X11373928Y-16665976D02*
X11373928Y-16532643D01*
X11373928Y-16551690D02*
X11383452Y-16542167D01*
X11402500Y-16532643D01*
X11431071Y-16532643D01*
X11450119Y-16542167D01*
X11459643Y-16561214D01*
X11459643Y-16665976D01*
X11459643Y-16561214D02*
X11469167Y-16542167D01*
X11488214Y-16532643D01*
X11516786Y-16532643D01*
X11535833Y-16542167D01*
X11545357Y-16561214D01*
X11545357Y-16665976D01*
X11935833Y-16456452D02*
X11764405Y-16713595D01*
X12192976Y-16465976D02*
X12212024Y-16465976D01*
X12231071Y-16475500D01*
X12240595Y-16485024D01*
X12250119Y-16504071D01*
X12259643Y-16542167D01*
X12259643Y-16589786D01*
X12250119Y-16627881D01*
X12240595Y-16646928D01*
X12231071Y-16656452D01*
X12212024Y-16665976D01*
X12192976Y-16665976D01*
X12173928Y-16656452D01*
X12164405Y-16646928D01*
X12154881Y-16627881D01*
X12145357Y-16589786D01*
X12145357Y-16542167D01*
X12154881Y-16504071D01*
X12164405Y-16485024D01*
X12173928Y-16475500D01*
X12192976Y-16465976D01*
X12345357Y-16646928D02*
X12354881Y-16656452D01*
X12345357Y-16665976D01*
X12335833Y-16656452D01*
X12345357Y-16646928D01*
X12345357Y-16665976D01*
X12478690Y-16465976D02*
X12497738Y-16465976D01*
X12516786Y-16475500D01*
X12526309Y-16485024D01*
X12535833Y-16504071D01*
X12545357Y-16542167D01*
X12545357Y-16589786D01*
X12535833Y-16627881D01*
X12526309Y-16646928D01*
X12516786Y-16656452D01*
X12497738Y-16665976D01*
X12478690Y-16665976D01*
X12459643Y-16656452D01*
X12450119Y-16646928D01*
X12440595Y-16627881D01*
X12431071Y-16589786D01*
X12431071Y-16542167D01*
X12440595Y-16504071D01*
X12450119Y-16485024D01*
X12459643Y-16475500D01*
X12478690Y-16465976D01*
X12726309Y-16465976D02*
X12631071Y-16465976D01*
X12621548Y-16561214D01*
X12631071Y-16551690D01*
X12650119Y-16542167D01*
X12697738Y-16542167D01*
X12716786Y-16551690D01*
X12726309Y-16561214D01*
X12735833Y-16580262D01*
X12735833Y-16627881D01*
X12726309Y-16646928D01*
X12716786Y-16656452D01*
X12697738Y-16665976D01*
X12650119Y-16665976D01*
X12631071Y-16656452D01*
X12621548Y-16646928D01*
X12831071Y-16665976D02*
X12869167Y-16665976D01*
X12888214Y-16656452D01*
X12897738Y-16646928D01*
X12916786Y-16618357D01*
X12926309Y-16580262D01*
X12926309Y-16504071D01*
X12916786Y-16485024D01*
X12907262Y-16475500D01*
X12888214Y-16465976D01*
X12850119Y-16465976D01*
X12831071Y-16475500D01*
X12821548Y-16485024D01*
X12812024Y-16504071D01*
X12812024Y-16551690D01*
X12821548Y-16570738D01*
X12831071Y-16580262D01*
X12850119Y-16589786D01*
X12888214Y-16589786D01*
X12907262Y-16580262D01*
X12916786Y-16570738D01*
X12926309Y-16551690D01*
X13116786Y-16665976D02*
X13002500Y-16665976D01*
X13059643Y-16665976D02*
X13059643Y-16465976D01*
X13040595Y-16494548D01*
X13021548Y-16513595D01*
X13002500Y-16523119D01*
X13192976Y-16465976D02*
X13192976Y-16504071D01*
X13269167Y-16465976D02*
X13269167Y-16504071D01*
X13564405Y-16742167D02*
X13554881Y-16732643D01*
X13535833Y-16704071D01*
X13526309Y-16685024D01*
X13516786Y-16656452D01*
X13507262Y-16608833D01*
X13507262Y-16570738D01*
X13516786Y-16523119D01*
X13526309Y-16494548D01*
X13535833Y-16475500D01*
X13554881Y-16446928D01*
X13564405Y-16437405D01*
X13745357Y-16665976D02*
X13631071Y-16665976D01*
X13688214Y-16665976D02*
X13688214Y-16465976D01*
X13669167Y-16494548D01*
X13650119Y-16513595D01*
X13631071Y-16523119D01*
X13983452Y-16665976D02*
X13983452Y-16465976D01*
X14069167Y-16665976D02*
X14069167Y-16561214D01*
X14059643Y-16542167D01*
X14040595Y-16532643D01*
X14012024Y-16532643D01*
X13992976Y-16542167D01*
X13983452Y-16551690D01*
X14192976Y-16665976D02*
X14173928Y-16656452D01*
X14164405Y-16646928D01*
X14154881Y-16627881D01*
X14154881Y-16570738D01*
X14164405Y-16551690D01*
X14173928Y-16542167D01*
X14192976Y-16532643D01*
X14221548Y-16532643D01*
X14240595Y-16542167D01*
X14250119Y-16551690D01*
X14259643Y-16570738D01*
X14259643Y-16627881D01*
X14250119Y-16646928D01*
X14240595Y-16656452D01*
X14221548Y-16665976D01*
X14192976Y-16665976D01*
X14373928Y-16665976D02*
X14354881Y-16656452D01*
X14345357Y-16637405D01*
X14345357Y-16465976D01*
X14526309Y-16656452D02*
X14507262Y-16665976D01*
X14469167Y-16665976D01*
X14450119Y-16656452D01*
X14440595Y-16637405D01*
X14440595Y-16561214D01*
X14450119Y-16542167D01*
X14469167Y-16532643D01*
X14507262Y-16532643D01*
X14526309Y-16542167D01*
X14535833Y-16561214D01*
X14535833Y-16580262D01*
X14440595Y-16599309D01*
X14602500Y-16742167D02*
X14612024Y-16732643D01*
X14631071Y-16704071D01*
X14640595Y-16685024D01*
X14650119Y-16656452D01*
X14659643Y-16608833D01*
X14659643Y-16570738D01*
X14650119Y-16523119D01*
X14640595Y-16494548D01*
X14631071Y-16475500D01*
X14612024Y-16446928D01*
X14602500Y-16437405D01*
X9963211Y-16916211D02*
X9963211Y-16774789D01*
X9821789Y-16774789D01*
X9821789Y-16916211D01*
X9963211Y-16916211D01*
X10240595Y-16755024D02*
X10250119Y-16745500D01*
X10269167Y-16735976D01*
X10316786Y-16735976D01*
X10335833Y-16745500D01*
X10345357Y-16755024D01*
X10354881Y-16774071D01*
X10354881Y-16793119D01*
X10345357Y-16821690D01*
X10231071Y-16935976D01*
X10354881Y-16935976D01*
X10440595Y-16916929D02*
X10450119Y-16926452D01*
X10440595Y-16935976D01*
X10431071Y-16926452D01*
X10440595Y-16916929D01*
X10440595Y-16935976D01*
X10573929Y-16735976D02*
X10592976Y-16735976D01*
X10612024Y-16745500D01*
X10621548Y-16755024D01*
X10631071Y-16774071D01*
X10640595Y-16812167D01*
X10640595Y-16859786D01*
X10631071Y-16897881D01*
X10621548Y-16916929D01*
X10612024Y-16926452D01*
X10592976Y-16935976D01*
X10573929Y-16935976D01*
X10554881Y-16926452D01*
X10545357Y-16916929D01*
X10535833Y-16897881D01*
X10526310Y-16859786D01*
X10526310Y-16812167D01*
X10535833Y-16774071D01*
X10545357Y-16755024D01*
X10554881Y-16745500D01*
X10573929Y-16735976D01*
X10764405Y-16735976D02*
X10783452Y-16735976D01*
X10802500Y-16745500D01*
X10812024Y-16755024D01*
X10821548Y-16774071D01*
X10831071Y-16812167D01*
X10831071Y-16859786D01*
X10821548Y-16897881D01*
X10812024Y-16916929D01*
X10802500Y-16926452D01*
X10783452Y-16935976D01*
X10764405Y-16935976D01*
X10745357Y-16926452D01*
X10735833Y-16916929D01*
X10726310Y-16897881D01*
X10716786Y-16859786D01*
X10716786Y-16812167D01*
X10726310Y-16774071D01*
X10735833Y-16755024D01*
X10745357Y-16745500D01*
X10764405Y-16735976D01*
X10954881Y-16735976D02*
X10973929Y-16735976D01*
X10992976Y-16745500D01*
X11002500Y-16755024D01*
X11012024Y-16774071D01*
X11021548Y-16812167D01*
X11021548Y-16859786D01*
X11012024Y-16897881D01*
X11002500Y-16916929D01*
X10992976Y-16926452D01*
X10973929Y-16935976D01*
X10954881Y-16935976D01*
X10935833Y-16926452D01*
X10926310Y-16916929D01*
X10916786Y-16897881D01*
X10907262Y-16859786D01*
X10907262Y-16812167D01*
X10916786Y-16774071D01*
X10926310Y-16755024D01*
X10935833Y-16745500D01*
X10954881Y-16735976D01*
X11107262Y-16935976D02*
X11107262Y-16802643D01*
X11107262Y-16821690D02*
X11116786Y-16812167D01*
X11135833Y-16802643D01*
X11164405Y-16802643D01*
X11183452Y-16812167D01*
X11192976Y-16831214D01*
X11192976Y-16935976D01*
X11192976Y-16831214D02*
X11202500Y-16812167D01*
X11221548Y-16802643D01*
X11250119Y-16802643D01*
X11269167Y-16812167D01*
X11278690Y-16831214D01*
X11278690Y-16935976D01*
X11373928Y-16935976D02*
X11373928Y-16802643D01*
X11373928Y-16821690D02*
X11383452Y-16812167D01*
X11402500Y-16802643D01*
X11431071Y-16802643D01*
X11450119Y-16812167D01*
X11459643Y-16831214D01*
X11459643Y-16935976D01*
X11459643Y-16831214D02*
X11469167Y-16812167D01*
X11488214Y-16802643D01*
X11516786Y-16802643D01*
X11535833Y-16812167D01*
X11545357Y-16831214D01*
X11545357Y-16935976D01*
X11935833Y-16726452D02*
X11764405Y-16983595D01*
X12192976Y-16735976D02*
X12212024Y-16735976D01*
X12231071Y-16745500D01*
X12240595Y-16755024D01*
X12250119Y-16774071D01*
X12259643Y-16812167D01*
X12259643Y-16859786D01*
X12250119Y-16897881D01*
X12240595Y-16916929D01*
X12231071Y-16926452D01*
X12212024Y-16935976D01*
X12192976Y-16935976D01*
X12173928Y-16926452D01*
X12164405Y-16916929D01*
X12154881Y-16897881D01*
X12145357Y-16859786D01*
X12145357Y-16812167D01*
X12154881Y-16774071D01*
X12164405Y-16755024D01*
X12173928Y-16745500D01*
X12192976Y-16735976D01*
X12345357Y-16916929D02*
X12354881Y-16926452D01*
X12345357Y-16935976D01*
X12335833Y-16926452D01*
X12345357Y-16916929D01*
X12345357Y-16935976D01*
X12478690Y-16735976D02*
X12497738Y-16735976D01*
X12516786Y-16745500D01*
X12526309Y-16755024D01*
X12535833Y-16774071D01*
X12545357Y-16812167D01*
X12545357Y-16859786D01*
X12535833Y-16897881D01*
X12526309Y-16916929D01*
X12516786Y-16926452D01*
X12497738Y-16935976D01*
X12478690Y-16935976D01*
X12459643Y-16926452D01*
X12450119Y-16916929D01*
X12440595Y-16897881D01*
X12431071Y-16859786D01*
X12431071Y-16812167D01*
X12440595Y-16774071D01*
X12450119Y-16755024D01*
X12459643Y-16745500D01*
X12478690Y-16735976D01*
X12612024Y-16735976D02*
X12745357Y-16735976D01*
X12659643Y-16935976D01*
X12850119Y-16821690D02*
X12831071Y-16812167D01*
X12821548Y-16802643D01*
X12812024Y-16783595D01*
X12812024Y-16774071D01*
X12821548Y-16755024D01*
X12831071Y-16745500D01*
X12850119Y-16735976D01*
X12888214Y-16735976D01*
X12907262Y-16745500D01*
X12916786Y-16755024D01*
X12926309Y-16774071D01*
X12926309Y-16783595D01*
X12916786Y-16802643D01*
X12907262Y-16812167D01*
X12888214Y-16821690D01*
X12850119Y-16821690D01*
X12831071Y-16831214D01*
X12821548Y-16840738D01*
X12812024Y-16859786D01*
X12812024Y-16897881D01*
X12821548Y-16916929D01*
X12831071Y-16926452D01*
X12850119Y-16935976D01*
X12888214Y-16935976D01*
X12907262Y-16926452D01*
X12916786Y-16916929D01*
X12926309Y-16897881D01*
X12926309Y-16859786D01*
X12916786Y-16840738D01*
X12907262Y-16831214D01*
X12888214Y-16821690D01*
X12992976Y-16735976D02*
X13126309Y-16735976D01*
X13040595Y-16935976D01*
X13192976Y-16735976D02*
X13192976Y-16774071D01*
X13269167Y-16735976D02*
X13269167Y-16774071D01*
X13564405Y-17012167D02*
X13554881Y-17002643D01*
X13535833Y-16974071D01*
X13526309Y-16955024D01*
X13516786Y-16926452D01*
X13507262Y-16878833D01*
X13507262Y-16840738D01*
X13516786Y-16793119D01*
X13526309Y-16764548D01*
X13535833Y-16745500D01*
X13554881Y-16716928D01*
X13564405Y-16707405D01*
X13745357Y-16935976D02*
X13631071Y-16935976D01*
X13688214Y-16935976D02*
X13688214Y-16735976D01*
X13669167Y-16764548D01*
X13650119Y-16783595D01*
X13631071Y-16793119D01*
X13983452Y-16935976D02*
X13983452Y-16735976D01*
X14069167Y-16935976D02*
X14069167Y-16831214D01*
X14059643Y-16812167D01*
X14040595Y-16802643D01*
X14012024Y-16802643D01*
X13992976Y-16812167D01*
X13983452Y-16821690D01*
X14192976Y-16935976D02*
X14173928Y-16926452D01*
X14164405Y-16916929D01*
X14154881Y-16897881D01*
X14154881Y-16840738D01*
X14164405Y-16821690D01*
X14173928Y-16812167D01*
X14192976Y-16802643D01*
X14221548Y-16802643D01*
X14240595Y-16812167D01*
X14250119Y-16821690D01*
X14259643Y-16840738D01*
X14259643Y-16897881D01*
X14250119Y-16916929D01*
X14240595Y-16926452D01*
X14221548Y-16935976D01*
X14192976Y-16935976D01*
X14373928Y-16935976D02*
X14354881Y-16926452D01*
X14345357Y-16907405D01*
X14345357Y-16735976D01*
X14526309Y-16926452D02*
X14507262Y-16935976D01*
X14469167Y-16935976D01*
X14450119Y-16926452D01*
X14440595Y-16907405D01*
X14440595Y-16831214D01*
X14450119Y-16812167D01*
X14469167Y-16802643D01*
X14507262Y-16802643D01*
X14526309Y-16812167D01*
X14535833Y-16831214D01*
X14535833Y-16850262D01*
X14440595Y-16869310D01*
X14602500Y-17012167D02*
X14612024Y-17002643D01*
X14631071Y-16974071D01*
X14640595Y-16955024D01*
X14650119Y-16926452D01*
X14659643Y-16878833D01*
X14659643Y-16840738D01*
X14650119Y-16793119D01*
X14640595Y-16764548D01*
X14631071Y-16745500D01*
X14612024Y-16716928D01*
X14602500Y-16707405D01*
X9892500Y-17265500D02*
X9992500Y-17165500D01*
X9892500Y-17065500D01*
X9792500Y-17165500D01*
X9892500Y-17265500D01*
X10240595Y-17075024D02*
X10250119Y-17065500D01*
X10269167Y-17055976D01*
X10316786Y-17055976D01*
X10335833Y-17065500D01*
X10345357Y-17075024D01*
X10354881Y-17094071D01*
X10354881Y-17113119D01*
X10345357Y-17141690D01*
X10231071Y-17255976D01*
X10354881Y-17255976D01*
X10440595Y-17236929D02*
X10450119Y-17246452D01*
X10440595Y-17255976D01*
X10431071Y-17246452D01*
X10440595Y-17236929D01*
X10440595Y-17255976D01*
X10640595Y-17255976D02*
X10526310Y-17255976D01*
X10583452Y-17255976D02*
X10583452Y-17055976D01*
X10564405Y-17084548D01*
X10545357Y-17103595D01*
X10526310Y-17113119D01*
X10764405Y-17055976D02*
X10783452Y-17055976D01*
X10802500Y-17065500D01*
X10812024Y-17075024D01*
X10821548Y-17094071D01*
X10831071Y-17132167D01*
X10831071Y-17179786D01*
X10821548Y-17217881D01*
X10812024Y-17236929D01*
X10802500Y-17246452D01*
X10783452Y-17255976D01*
X10764405Y-17255976D01*
X10745357Y-17246452D01*
X10735833Y-17236929D01*
X10726310Y-17217881D01*
X10716786Y-17179786D01*
X10716786Y-17132167D01*
X10726310Y-17094071D01*
X10735833Y-17075024D01*
X10745357Y-17065500D01*
X10764405Y-17055976D01*
X10954881Y-17055976D02*
X10973929Y-17055976D01*
X10992976Y-17065500D01*
X11002500Y-17075024D01*
X11012024Y-17094071D01*
X11021548Y-17132167D01*
X11021548Y-17179786D01*
X11012024Y-17217881D01*
X11002500Y-17236929D01*
X10992976Y-17246452D01*
X10973929Y-17255976D01*
X10954881Y-17255976D01*
X10935833Y-17246452D01*
X10926310Y-17236929D01*
X10916786Y-17217881D01*
X10907262Y-17179786D01*
X10907262Y-17132167D01*
X10916786Y-17094071D01*
X10926310Y-17075024D01*
X10935833Y-17065500D01*
X10954881Y-17055976D01*
X11107262Y-17255976D02*
X11107262Y-17122643D01*
X11107262Y-17141690D02*
X11116786Y-17132167D01*
X11135833Y-17122643D01*
X11164405Y-17122643D01*
X11183452Y-17132167D01*
X11192976Y-17151214D01*
X11192976Y-17255976D01*
X11192976Y-17151214D02*
X11202500Y-17132167D01*
X11221548Y-17122643D01*
X11250119Y-17122643D01*
X11269167Y-17132167D01*
X11278690Y-17151214D01*
X11278690Y-17255976D01*
X11373928Y-17255976D02*
X11373928Y-17122643D01*
X11373928Y-17141690D02*
X11383452Y-17132167D01*
X11402500Y-17122643D01*
X11431071Y-17122643D01*
X11450119Y-17132167D01*
X11459643Y-17151214D01*
X11459643Y-17255976D01*
X11459643Y-17151214D02*
X11469167Y-17132167D01*
X11488214Y-17122643D01*
X11516786Y-17122643D01*
X11535833Y-17132167D01*
X11545357Y-17151214D01*
X11545357Y-17255976D01*
X11935833Y-17046452D02*
X11764405Y-17303595D01*
X12192976Y-17055976D02*
X12212024Y-17055976D01*
X12231071Y-17065500D01*
X12240595Y-17075024D01*
X12250119Y-17094071D01*
X12259643Y-17132167D01*
X12259643Y-17179786D01*
X12250119Y-17217881D01*
X12240595Y-17236929D01*
X12231071Y-17246452D01*
X12212024Y-17255976D01*
X12192976Y-17255976D01*
X12173928Y-17246452D01*
X12164405Y-17236929D01*
X12154881Y-17217881D01*
X12145357Y-17179786D01*
X12145357Y-17132167D01*
X12154881Y-17094071D01*
X12164405Y-17075024D01*
X12173928Y-17065500D01*
X12192976Y-17055976D01*
X12345357Y-17236929D02*
X12354881Y-17246452D01*
X12345357Y-17255976D01*
X12335833Y-17246452D01*
X12345357Y-17236929D01*
X12345357Y-17255976D01*
X12478690Y-17055976D02*
X12497738Y-17055976D01*
X12516786Y-17065500D01*
X12526309Y-17075024D01*
X12535833Y-17094071D01*
X12545357Y-17132167D01*
X12545357Y-17179786D01*
X12535833Y-17217881D01*
X12526309Y-17236929D01*
X12516786Y-17246452D01*
X12497738Y-17255976D01*
X12478690Y-17255976D01*
X12459643Y-17246452D01*
X12450119Y-17236929D01*
X12440595Y-17217881D01*
X12431071Y-17179786D01*
X12431071Y-17132167D01*
X12440595Y-17094071D01*
X12450119Y-17075024D01*
X12459643Y-17065500D01*
X12478690Y-17055976D01*
X12659643Y-17141690D02*
X12640595Y-17132167D01*
X12631071Y-17122643D01*
X12621548Y-17103595D01*
X12621548Y-17094071D01*
X12631071Y-17075024D01*
X12640595Y-17065500D01*
X12659643Y-17055976D01*
X12697738Y-17055976D01*
X12716786Y-17065500D01*
X12726309Y-17075024D01*
X12735833Y-17094071D01*
X12735833Y-17103595D01*
X12726309Y-17122643D01*
X12716786Y-17132167D01*
X12697738Y-17141690D01*
X12659643Y-17141690D01*
X12640595Y-17151214D01*
X12631071Y-17160738D01*
X12621548Y-17179786D01*
X12621548Y-17217881D01*
X12631071Y-17236929D01*
X12640595Y-17246452D01*
X12659643Y-17255976D01*
X12697738Y-17255976D01*
X12716786Y-17246452D01*
X12726309Y-17236929D01*
X12735833Y-17217881D01*
X12735833Y-17179786D01*
X12726309Y-17160738D01*
X12716786Y-17151214D01*
X12697738Y-17141690D01*
X12812024Y-17075024D02*
X12821548Y-17065500D01*
X12840595Y-17055976D01*
X12888214Y-17055976D01*
X12907262Y-17065500D01*
X12916786Y-17075024D01*
X12926309Y-17094071D01*
X12926309Y-17113119D01*
X12916786Y-17141690D01*
X12802500Y-17255976D01*
X12926309Y-17255976D01*
X12992976Y-17055976D02*
X13126309Y-17055976D01*
X13040595Y-17255976D01*
X13192976Y-17055976D02*
X13192976Y-17094071D01*
X13269167Y-17055976D02*
X13269167Y-17094071D01*
X13564405Y-17332167D02*
X13554881Y-17322643D01*
X13535833Y-17294071D01*
X13526309Y-17275024D01*
X13516786Y-17246452D01*
X13507262Y-17198833D01*
X13507262Y-17160738D01*
X13516786Y-17113119D01*
X13526309Y-17084548D01*
X13535833Y-17065500D01*
X13554881Y-17036929D01*
X13564405Y-17027405D01*
X13669167Y-17141690D02*
X13650119Y-17132167D01*
X13640595Y-17122643D01*
X13631071Y-17103595D01*
X13631071Y-17094071D01*
X13640595Y-17075024D01*
X13650119Y-17065500D01*
X13669167Y-17055976D01*
X13707262Y-17055976D01*
X13726309Y-17065500D01*
X13735833Y-17075024D01*
X13745357Y-17094071D01*
X13745357Y-17103595D01*
X13735833Y-17122643D01*
X13726309Y-17132167D01*
X13707262Y-17141690D01*
X13669167Y-17141690D01*
X13650119Y-17151214D01*
X13640595Y-17160738D01*
X13631071Y-17179786D01*
X13631071Y-17217881D01*
X13640595Y-17236929D01*
X13650119Y-17246452D01*
X13669167Y-17255976D01*
X13707262Y-17255976D01*
X13726309Y-17246452D01*
X13735833Y-17236929D01*
X13745357Y-17217881D01*
X13745357Y-17179786D01*
X13735833Y-17160738D01*
X13726309Y-17151214D01*
X13707262Y-17141690D01*
X13983452Y-17255976D02*
X13983452Y-17055976D01*
X14069167Y-17255976D02*
X14069167Y-17151214D01*
X14059643Y-17132167D01*
X14040595Y-17122643D01*
X14012024Y-17122643D01*
X13992976Y-17132167D01*
X13983452Y-17141690D01*
X14192976Y-17255976D02*
X14173928Y-17246452D01*
X14164405Y-17236929D01*
X14154881Y-17217881D01*
X14154881Y-17160738D01*
X14164405Y-17141690D01*
X14173928Y-17132167D01*
X14192976Y-17122643D01*
X14221548Y-17122643D01*
X14240595Y-17132167D01*
X14250119Y-17141690D01*
X14259643Y-17160738D01*
X14259643Y-17217881D01*
X14250119Y-17236929D01*
X14240595Y-17246452D01*
X14221548Y-17255976D01*
X14192976Y-17255976D01*
X14373928Y-17255976D02*
X14354881Y-17246452D01*
X14345357Y-17227405D01*
X14345357Y-17055976D01*
X14526309Y-17246452D02*
X14507262Y-17255976D01*
X14469167Y-17255976D01*
X14450119Y-17246452D01*
X14440595Y-17227405D01*
X14440595Y-17151214D01*
X14450119Y-17132167D01*
X14469167Y-17122643D01*
X14507262Y-17122643D01*
X14526309Y-17132167D01*
X14535833Y-17151214D01*
X14535833Y-17170262D01*
X14440595Y-17189310D01*
X14612024Y-17246452D02*
X14631071Y-17255976D01*
X14669167Y-17255976D01*
X14688214Y-17246452D01*
X14697738Y-17227405D01*
X14697738Y-17217881D01*
X14688214Y-17198833D01*
X14669167Y-17189310D01*
X14640595Y-17189310D01*
X14621548Y-17179786D01*
X14612024Y-17160738D01*
X14612024Y-17151214D01*
X14621548Y-17132167D01*
X14640595Y-17122643D01*
X14669167Y-17122643D01*
X14688214Y-17132167D01*
X14764405Y-17332167D02*
X14773928Y-17322643D01*
X14792976Y-17294071D01*
X14802500Y-17275024D01*
X14812024Y-17246452D01*
X14821548Y-17198833D01*
X14821548Y-17160738D01*
X14812024Y-17113119D01*
X14802500Y-17084548D01*
X14792976Y-17065500D01*
X14773928Y-17036929D01*
X14764405Y-17027405D01*
X9792500Y-17385500D02*
X9992500Y-17585500D01*
X9992500Y-17385500D02*
X9792500Y-17585500D01*
X9992500Y-17485500D02*
G75*
G03*
X9992500Y-17485500I-100000J0D01*
G01*
X10240595Y-17395024D02*
X10250119Y-17385500D01*
X10269167Y-17375976D01*
X10316786Y-17375976D01*
X10335833Y-17385500D01*
X10345357Y-17395024D01*
X10354881Y-17414071D01*
X10354881Y-17433119D01*
X10345357Y-17461690D01*
X10231071Y-17575976D01*
X10354881Y-17575976D01*
X10440595Y-17556929D02*
X10450119Y-17566452D01*
X10440595Y-17575976D01*
X10431071Y-17566452D01*
X10440595Y-17556929D01*
X10440595Y-17575976D01*
X10621548Y-17442643D02*
X10621548Y-17575976D01*
X10573929Y-17366452D02*
X10526310Y-17509310D01*
X10650119Y-17509310D01*
X10821548Y-17375976D02*
X10726310Y-17375976D01*
X10716786Y-17471214D01*
X10726310Y-17461690D01*
X10745357Y-17452167D01*
X10792976Y-17452167D01*
X10812024Y-17461690D01*
X10821548Y-17471214D01*
X10831071Y-17490262D01*
X10831071Y-17537881D01*
X10821548Y-17556929D01*
X10812024Y-17566452D01*
X10792976Y-17575976D01*
X10745357Y-17575976D01*
X10726310Y-17566452D01*
X10716786Y-17556929D01*
X10954881Y-17375976D02*
X10973929Y-17375976D01*
X10992976Y-17385500D01*
X11002500Y-17395024D01*
X11012024Y-17414071D01*
X11021548Y-17452167D01*
X11021548Y-17499786D01*
X11012024Y-17537881D01*
X11002500Y-17556929D01*
X10992976Y-17566452D01*
X10973929Y-17575976D01*
X10954881Y-17575976D01*
X10935833Y-17566452D01*
X10926310Y-17556929D01*
X10916786Y-17537881D01*
X10907262Y-17499786D01*
X10907262Y-17452167D01*
X10916786Y-17414071D01*
X10926310Y-17395024D01*
X10935833Y-17385500D01*
X10954881Y-17375976D01*
X11107262Y-17575976D02*
X11107262Y-17442643D01*
X11107262Y-17461690D02*
X11116786Y-17452167D01*
X11135833Y-17442643D01*
X11164405Y-17442643D01*
X11183452Y-17452167D01*
X11192976Y-17471214D01*
X11192976Y-17575976D01*
X11192976Y-17471214D02*
X11202500Y-17452167D01*
X11221548Y-17442643D01*
X11250119Y-17442643D01*
X11269167Y-17452167D01*
X11278690Y-17471214D01*
X11278690Y-17575976D01*
X11373928Y-17575976D02*
X11373928Y-17442643D01*
X11373928Y-17461690D02*
X11383452Y-17452167D01*
X11402500Y-17442643D01*
X11431071Y-17442643D01*
X11450119Y-17452167D01*
X11459643Y-17471214D01*
X11459643Y-17575976D01*
X11459643Y-17471214D02*
X11469167Y-17452167D01*
X11488214Y-17442643D01*
X11516786Y-17442643D01*
X11535833Y-17452167D01*
X11545357Y-17471214D01*
X11545357Y-17575976D01*
X11935833Y-17366452D02*
X11764405Y-17623595D01*
X12192976Y-17375976D02*
X12212024Y-17375976D01*
X12231071Y-17385500D01*
X12240595Y-17395024D01*
X12250119Y-17414071D01*
X12259643Y-17452167D01*
X12259643Y-17499786D01*
X12250119Y-17537881D01*
X12240595Y-17556929D01*
X12231071Y-17566452D01*
X12212024Y-17575976D01*
X12192976Y-17575976D01*
X12173928Y-17566452D01*
X12164405Y-17556929D01*
X12154881Y-17537881D01*
X12145357Y-17499786D01*
X12145357Y-17452167D01*
X12154881Y-17414071D01*
X12164405Y-17395024D01*
X12173928Y-17385500D01*
X12192976Y-17375976D01*
X12345357Y-17556929D02*
X12354881Y-17566452D01*
X12345357Y-17575976D01*
X12335833Y-17566452D01*
X12345357Y-17556929D01*
X12345357Y-17575976D01*
X12478690Y-17375976D02*
X12497738Y-17375976D01*
X12516786Y-17385500D01*
X12526309Y-17395024D01*
X12535833Y-17414071D01*
X12545357Y-17452167D01*
X12545357Y-17499786D01*
X12535833Y-17537881D01*
X12526309Y-17556929D01*
X12516786Y-17566452D01*
X12497738Y-17575976D01*
X12478690Y-17575976D01*
X12459643Y-17566452D01*
X12450119Y-17556929D01*
X12440595Y-17537881D01*
X12431071Y-17499786D01*
X12431071Y-17452167D01*
X12440595Y-17414071D01*
X12450119Y-17395024D01*
X12459643Y-17385500D01*
X12478690Y-17375976D01*
X12640595Y-17575976D02*
X12678690Y-17575976D01*
X12697738Y-17566452D01*
X12707262Y-17556929D01*
X12726309Y-17528357D01*
X12735833Y-17490262D01*
X12735833Y-17414071D01*
X12726309Y-17395024D01*
X12716786Y-17385500D01*
X12697738Y-17375976D01*
X12659643Y-17375976D01*
X12640595Y-17385500D01*
X12631071Y-17395024D01*
X12621548Y-17414071D01*
X12621548Y-17461690D01*
X12631071Y-17480738D01*
X12640595Y-17490262D01*
X12659643Y-17499786D01*
X12697738Y-17499786D01*
X12716786Y-17490262D01*
X12726309Y-17480738D01*
X12735833Y-17461690D01*
X12907262Y-17375976D02*
X12869167Y-17375976D01*
X12850119Y-17385500D01*
X12840595Y-17395024D01*
X12821548Y-17423595D01*
X12812024Y-17461690D01*
X12812024Y-17537881D01*
X12821548Y-17556929D01*
X12831071Y-17566452D01*
X12850119Y-17575976D01*
X12888214Y-17575976D01*
X12907262Y-17566452D01*
X12916786Y-17556929D01*
X12926309Y-17537881D01*
X12926309Y-17490262D01*
X12916786Y-17471214D01*
X12907262Y-17461690D01*
X12888214Y-17452167D01*
X12850119Y-17452167D01*
X12831071Y-17461690D01*
X12821548Y-17471214D01*
X12812024Y-17490262D01*
X13107262Y-17375976D02*
X13012024Y-17375976D01*
X13002500Y-17471214D01*
X13012024Y-17461690D01*
X13031071Y-17452167D01*
X13078690Y-17452167D01*
X13097738Y-17461690D01*
X13107262Y-17471214D01*
X13116786Y-17490262D01*
X13116786Y-17537881D01*
X13107262Y-17556929D01*
X13097738Y-17566452D01*
X13078690Y-17575976D01*
X13031071Y-17575976D01*
X13012024Y-17566452D01*
X13002500Y-17556929D01*
X13192976Y-17375976D02*
X13192976Y-17414071D01*
X13269167Y-17375976D02*
X13269167Y-17414071D01*
X13564405Y-17652167D02*
X13554881Y-17642643D01*
X13535833Y-17614071D01*
X13526309Y-17595024D01*
X13516786Y-17566452D01*
X13507262Y-17518833D01*
X13507262Y-17480738D01*
X13516786Y-17433119D01*
X13526309Y-17404548D01*
X13535833Y-17385500D01*
X13554881Y-17356929D01*
X13564405Y-17347405D01*
X13745357Y-17575976D02*
X13631071Y-17575976D01*
X13688214Y-17575976D02*
X13688214Y-17375976D01*
X13669167Y-17404548D01*
X13650119Y-17423595D01*
X13631071Y-17433119D01*
X13983452Y-17575976D02*
X13983452Y-17375976D01*
X14069167Y-17575976D02*
X14069167Y-17471214D01*
X14059643Y-17452167D01*
X14040595Y-17442643D01*
X14012024Y-17442643D01*
X13992976Y-17452167D01*
X13983452Y-17461690D01*
X14192976Y-17575976D02*
X14173928Y-17566452D01*
X14164405Y-17556929D01*
X14154881Y-17537881D01*
X14154881Y-17480738D01*
X14164405Y-17461690D01*
X14173928Y-17452167D01*
X14192976Y-17442643D01*
X14221548Y-17442643D01*
X14240595Y-17452167D01*
X14250119Y-17461690D01*
X14259643Y-17480738D01*
X14259643Y-17537881D01*
X14250119Y-17556929D01*
X14240595Y-17566452D01*
X14221548Y-17575976D01*
X14192976Y-17575976D01*
X14373928Y-17575976D02*
X14354881Y-17566452D01*
X14345357Y-17547405D01*
X14345357Y-17375976D01*
X14526309Y-17566452D02*
X14507262Y-17575976D01*
X14469167Y-17575976D01*
X14450119Y-17566452D01*
X14440595Y-17547405D01*
X14440595Y-17471214D01*
X14450119Y-17452167D01*
X14469167Y-17442643D01*
X14507262Y-17442643D01*
X14526309Y-17452167D01*
X14535833Y-17471214D01*
X14535833Y-17490262D01*
X14440595Y-17509310D01*
X14602500Y-17652167D02*
X14612024Y-17642643D01*
X14631071Y-17614071D01*
X14640595Y-17595024D01*
X14650119Y-17566452D01*
X14659643Y-17518833D01*
X14659643Y-17480738D01*
X14650119Y-17433119D01*
X14640595Y-17404548D01*
X14631071Y-17385500D01*
X14612024Y-17356929D01*
X14602500Y-17347405D01*
X9792500Y-17705500D02*
X9992500Y-17905500D01*
X9992500Y-17705500D02*
X9792500Y-17905500D01*
X9892500Y-17705500D02*
X9892500Y-17905500D01*
X9792500Y-17805500D02*
X9992500Y-17805500D01*
X10240595Y-17715024D02*
X10250119Y-17705500D01*
X10269167Y-17695976D01*
X10316786Y-17695976D01*
X10335833Y-17705500D01*
X10345357Y-17715024D01*
X10354881Y-17734071D01*
X10354881Y-17753119D01*
X10345357Y-17781690D01*
X10231071Y-17895976D01*
X10354881Y-17895976D01*
X10440595Y-17876929D02*
X10450119Y-17886452D01*
X10440595Y-17895976D01*
X10431071Y-17886452D01*
X10440595Y-17876929D01*
X10440595Y-17895976D01*
X10631071Y-17695976D02*
X10535833Y-17695976D01*
X10526310Y-17791214D01*
X10535833Y-17781690D01*
X10554881Y-17772167D01*
X10602500Y-17772167D01*
X10621548Y-17781690D01*
X10631071Y-17791214D01*
X10640595Y-17810262D01*
X10640595Y-17857881D01*
X10631071Y-17876929D01*
X10621548Y-17886452D01*
X10602500Y-17895976D01*
X10554881Y-17895976D01*
X10535833Y-17886452D01*
X10526310Y-17876929D01*
X10764405Y-17695976D02*
X10783452Y-17695976D01*
X10802500Y-17705500D01*
X10812024Y-17715024D01*
X10821548Y-17734071D01*
X10831071Y-17772167D01*
X10831071Y-17819786D01*
X10821548Y-17857881D01*
X10812024Y-17876929D01*
X10802500Y-17886452D01*
X10783452Y-17895976D01*
X10764405Y-17895976D01*
X10745357Y-17886452D01*
X10735833Y-17876929D01*
X10726310Y-17857881D01*
X10716786Y-17819786D01*
X10716786Y-17772167D01*
X10726310Y-17734071D01*
X10735833Y-17715024D01*
X10745357Y-17705500D01*
X10764405Y-17695976D01*
X10954881Y-17695976D02*
X10973929Y-17695976D01*
X10992976Y-17705500D01*
X11002500Y-17715024D01*
X11012024Y-17734071D01*
X11021548Y-17772167D01*
X11021548Y-17819786D01*
X11012024Y-17857881D01*
X11002500Y-17876929D01*
X10992976Y-17886452D01*
X10973929Y-17895976D01*
X10954881Y-17895976D01*
X10935833Y-17886452D01*
X10926310Y-17876929D01*
X10916786Y-17857881D01*
X10907262Y-17819786D01*
X10907262Y-17772167D01*
X10916786Y-17734071D01*
X10926310Y-17715024D01*
X10935833Y-17705500D01*
X10954881Y-17695976D01*
X11107262Y-17895976D02*
X11107262Y-17762643D01*
X11107262Y-17781690D02*
X11116786Y-17772167D01*
X11135833Y-17762643D01*
X11164405Y-17762643D01*
X11183452Y-17772167D01*
X11192976Y-17791214D01*
X11192976Y-17895976D01*
X11192976Y-17791214D02*
X11202500Y-17772167D01*
X11221548Y-17762643D01*
X11250119Y-17762643D01*
X11269167Y-17772167D01*
X11278690Y-17791214D01*
X11278690Y-17895976D01*
X11373928Y-17895976D02*
X11373928Y-17762643D01*
X11373928Y-17781690D02*
X11383452Y-17772167D01*
X11402500Y-17762643D01*
X11431071Y-17762643D01*
X11450119Y-17772167D01*
X11459643Y-17791214D01*
X11459643Y-17895976D01*
X11459643Y-17791214D02*
X11469167Y-17772167D01*
X11488214Y-17762643D01*
X11516786Y-17762643D01*
X11535833Y-17772167D01*
X11545357Y-17791214D01*
X11545357Y-17895976D01*
X11935833Y-17686452D02*
X11764405Y-17943595D01*
X12192976Y-17695976D02*
X12212024Y-17695976D01*
X12231071Y-17705500D01*
X12240595Y-17715024D01*
X12250119Y-17734071D01*
X12259643Y-17772167D01*
X12259643Y-17819786D01*
X12250119Y-17857881D01*
X12240595Y-17876929D01*
X12231071Y-17886452D01*
X12212024Y-17895976D01*
X12192976Y-17895976D01*
X12173928Y-17886452D01*
X12164405Y-17876929D01*
X12154881Y-17857881D01*
X12145357Y-17819786D01*
X12145357Y-17772167D01*
X12154881Y-17734071D01*
X12164405Y-17715024D01*
X12173928Y-17705500D01*
X12192976Y-17695976D01*
X12345357Y-17876929D02*
X12354881Y-17886452D01*
X12345357Y-17895976D01*
X12335833Y-17886452D01*
X12345357Y-17876929D01*
X12345357Y-17895976D01*
X12478690Y-17695976D02*
X12497738Y-17695976D01*
X12516786Y-17705500D01*
X12526309Y-17715024D01*
X12535833Y-17734071D01*
X12545357Y-17772167D01*
X12545357Y-17819786D01*
X12535833Y-17857881D01*
X12526309Y-17876929D01*
X12516786Y-17886452D01*
X12497738Y-17895976D01*
X12478690Y-17895976D01*
X12459643Y-17886452D01*
X12450119Y-17876929D01*
X12440595Y-17857881D01*
X12431071Y-17819786D01*
X12431071Y-17772167D01*
X12440595Y-17734071D01*
X12450119Y-17715024D01*
X12459643Y-17705500D01*
X12478690Y-17695976D01*
X12640595Y-17895976D02*
X12678690Y-17895976D01*
X12697738Y-17886452D01*
X12707262Y-17876929D01*
X12726309Y-17848357D01*
X12735833Y-17810262D01*
X12735833Y-17734071D01*
X12726309Y-17715024D01*
X12716786Y-17705500D01*
X12697738Y-17695976D01*
X12659643Y-17695976D01*
X12640595Y-17705500D01*
X12631071Y-17715024D01*
X12621548Y-17734071D01*
X12621548Y-17781690D01*
X12631071Y-17800738D01*
X12640595Y-17810262D01*
X12659643Y-17819786D01*
X12697738Y-17819786D01*
X12716786Y-17810262D01*
X12726309Y-17800738D01*
X12735833Y-17781690D01*
X12850119Y-17781690D02*
X12831071Y-17772167D01*
X12821548Y-17762643D01*
X12812024Y-17743595D01*
X12812024Y-17734071D01*
X12821548Y-17715024D01*
X12831071Y-17705500D01*
X12850119Y-17695976D01*
X12888214Y-17695976D01*
X12907262Y-17705500D01*
X12916786Y-17715024D01*
X12926309Y-17734071D01*
X12926309Y-17743595D01*
X12916786Y-17762643D01*
X12907262Y-17772167D01*
X12888214Y-17781690D01*
X12850119Y-17781690D01*
X12831071Y-17791214D01*
X12821548Y-17800738D01*
X12812024Y-17819786D01*
X12812024Y-17857881D01*
X12821548Y-17876929D01*
X12831071Y-17886452D01*
X12850119Y-17895976D01*
X12888214Y-17895976D01*
X12907262Y-17886452D01*
X12916786Y-17876929D01*
X12926309Y-17857881D01*
X12926309Y-17819786D01*
X12916786Y-17800738D01*
X12907262Y-17791214D01*
X12888214Y-17781690D01*
X13097738Y-17762643D02*
X13097738Y-17895976D01*
X13050119Y-17686452D02*
X13002500Y-17829310D01*
X13126309Y-17829310D01*
X13192976Y-17695976D02*
X13192976Y-17734071D01*
X13269167Y-17695976D02*
X13269167Y-17734071D01*
X13564405Y-17972167D02*
X13554881Y-17962643D01*
X13535833Y-17934071D01*
X13526309Y-17915024D01*
X13516786Y-17886452D01*
X13507262Y-17838833D01*
X13507262Y-17800738D01*
X13516786Y-17753119D01*
X13526309Y-17724548D01*
X13535833Y-17705500D01*
X13554881Y-17676929D01*
X13564405Y-17667405D01*
X13735833Y-17695976D02*
X13640595Y-17695976D01*
X13631071Y-17791214D01*
X13640595Y-17781690D01*
X13659643Y-17772167D01*
X13707262Y-17772167D01*
X13726309Y-17781690D01*
X13735833Y-17791214D01*
X13745357Y-17810262D01*
X13745357Y-17857881D01*
X13735833Y-17876929D01*
X13726309Y-17886452D01*
X13707262Y-17895976D01*
X13659643Y-17895976D01*
X13640595Y-17886452D01*
X13631071Y-17876929D01*
X13983452Y-17895976D02*
X13983452Y-17695976D01*
X14069167Y-17895976D02*
X14069167Y-17791214D01*
X14059643Y-17772167D01*
X14040595Y-17762643D01*
X14012024Y-17762643D01*
X13992976Y-17772167D01*
X13983452Y-17781690D01*
X14192976Y-17895976D02*
X14173928Y-17886452D01*
X14164405Y-17876929D01*
X14154881Y-17857881D01*
X14154881Y-17800738D01*
X14164405Y-17781690D01*
X14173928Y-17772167D01*
X14192976Y-17762643D01*
X14221548Y-17762643D01*
X14240595Y-17772167D01*
X14250119Y-17781690D01*
X14259643Y-17800738D01*
X14259643Y-17857881D01*
X14250119Y-17876929D01*
X14240595Y-17886452D01*
X14221548Y-17895976D01*
X14192976Y-17895976D01*
X14373928Y-17895976D02*
X14354881Y-17886452D01*
X14345357Y-17867405D01*
X14345357Y-17695976D01*
X14526309Y-17886452D02*
X14507262Y-17895976D01*
X14469167Y-17895976D01*
X14450119Y-17886452D01*
X14440595Y-17867405D01*
X14440595Y-17791214D01*
X14450119Y-17772167D01*
X14469167Y-17762643D01*
X14507262Y-17762643D01*
X14526309Y-17772167D01*
X14535833Y-17791214D01*
X14535833Y-17810262D01*
X14440595Y-17829310D01*
X14612024Y-17886452D02*
X14631071Y-17895976D01*
X14669167Y-17895976D01*
X14688214Y-17886452D01*
X14697738Y-17867405D01*
X14697738Y-17857881D01*
X14688214Y-17838833D01*
X14669167Y-17829310D01*
X14640595Y-17829310D01*
X14621548Y-17819786D01*
X14612024Y-17800738D01*
X14612024Y-17791214D01*
X14621548Y-17772167D01*
X14640595Y-17762643D01*
X14669167Y-17762643D01*
X14688214Y-17772167D01*
X14764405Y-17972167D02*
X14773928Y-17962643D01*
X14792976Y-17934071D01*
X14802500Y-17915024D01*
X14812024Y-17886452D01*
X14821548Y-17838833D01*
X14821548Y-17800738D01*
X14812024Y-17753119D01*
X14802500Y-17724548D01*
X14792976Y-17705500D01*
X14773928Y-17676929D01*
X14764405Y-17667405D01*
X9792500Y-18025500D02*
X9992500Y-18225500D01*
X9992500Y-18025500D02*
X9792500Y-18225500D01*
X9963211Y-18196211D02*
X9963211Y-18054789D01*
X9821789Y-18054789D01*
X9821789Y-18196211D01*
X9963211Y-18196211D01*
X10231071Y-18015976D02*
X10354881Y-18015976D01*
X10288214Y-18092167D01*
X10316786Y-18092167D01*
X10335833Y-18101690D01*
X10345357Y-18111214D01*
X10354881Y-18130262D01*
X10354881Y-18177881D01*
X10345357Y-18196929D01*
X10335833Y-18206452D01*
X10316786Y-18215976D01*
X10259643Y-18215976D01*
X10240595Y-18206452D01*
X10231071Y-18196929D01*
X10440595Y-18196929D02*
X10450119Y-18206452D01*
X10440595Y-18215976D01*
X10431071Y-18206452D01*
X10440595Y-18196929D01*
X10440595Y-18215976D01*
X10573929Y-18015976D02*
X10592976Y-18015976D01*
X10612024Y-18025500D01*
X10621548Y-18035024D01*
X10631071Y-18054071D01*
X10640595Y-18092167D01*
X10640595Y-18139786D01*
X10631071Y-18177881D01*
X10621548Y-18196929D01*
X10612024Y-18206452D01*
X10592976Y-18215976D01*
X10573929Y-18215976D01*
X10554881Y-18206452D01*
X10545357Y-18196929D01*
X10535833Y-18177881D01*
X10526310Y-18139786D01*
X10526310Y-18092167D01*
X10535833Y-18054071D01*
X10545357Y-18035024D01*
X10554881Y-18025500D01*
X10573929Y-18015976D01*
X10764405Y-18015976D02*
X10783452Y-18015976D01*
X10802500Y-18025500D01*
X10812024Y-18035024D01*
X10821548Y-18054071D01*
X10831071Y-18092167D01*
X10831071Y-18139786D01*
X10821548Y-18177881D01*
X10812024Y-18196929D01*
X10802500Y-18206452D01*
X10783452Y-18215976D01*
X10764405Y-18215976D01*
X10745357Y-18206452D01*
X10735833Y-18196929D01*
X10726310Y-18177881D01*
X10716786Y-18139786D01*
X10716786Y-18092167D01*
X10726310Y-18054071D01*
X10735833Y-18035024D01*
X10745357Y-18025500D01*
X10764405Y-18015976D01*
X10954881Y-18015976D02*
X10973929Y-18015976D01*
X10992976Y-18025500D01*
X11002500Y-18035024D01*
X11012024Y-18054071D01*
X11021548Y-18092167D01*
X11021548Y-18139786D01*
X11012024Y-18177881D01*
X11002500Y-18196929D01*
X10992976Y-18206452D01*
X10973929Y-18215976D01*
X10954881Y-18215976D01*
X10935833Y-18206452D01*
X10926310Y-18196929D01*
X10916786Y-18177881D01*
X10907262Y-18139786D01*
X10907262Y-18092167D01*
X10916786Y-18054071D01*
X10926310Y-18035024D01*
X10935833Y-18025500D01*
X10954881Y-18015976D01*
X11107262Y-18215976D02*
X11107262Y-18082643D01*
X11107262Y-18101690D02*
X11116786Y-18092167D01*
X11135833Y-18082643D01*
X11164405Y-18082643D01*
X11183452Y-18092167D01*
X11192976Y-18111214D01*
X11192976Y-18215976D01*
X11192976Y-18111214D02*
X11202500Y-18092167D01*
X11221548Y-18082643D01*
X11250119Y-18082643D01*
X11269167Y-18092167D01*
X11278690Y-18111214D01*
X11278690Y-18215976D01*
X11373928Y-18215976D02*
X11373928Y-18082643D01*
X11373928Y-18101690D02*
X11383452Y-18092167D01*
X11402500Y-18082643D01*
X11431071Y-18082643D01*
X11450119Y-18092167D01*
X11459643Y-18111214D01*
X11459643Y-18215976D01*
X11459643Y-18111214D02*
X11469167Y-18092167D01*
X11488214Y-18082643D01*
X11516786Y-18082643D01*
X11535833Y-18092167D01*
X11545357Y-18111214D01*
X11545357Y-18215976D01*
X11935833Y-18006452D02*
X11764405Y-18263595D01*
X12192976Y-18015976D02*
X12212024Y-18015976D01*
X12231071Y-18025500D01*
X12240595Y-18035024D01*
X12250119Y-18054071D01*
X12259643Y-18092167D01*
X12259643Y-18139786D01*
X12250119Y-18177881D01*
X12240595Y-18196929D01*
X12231071Y-18206452D01*
X12212024Y-18215976D01*
X12192976Y-18215976D01*
X12173928Y-18206452D01*
X12164405Y-18196929D01*
X12154881Y-18177881D01*
X12145357Y-18139786D01*
X12145357Y-18092167D01*
X12154881Y-18054071D01*
X12164405Y-18035024D01*
X12173928Y-18025500D01*
X12192976Y-18015976D01*
X12345357Y-18196929D02*
X12354881Y-18206452D01*
X12345357Y-18215976D01*
X12335833Y-18206452D01*
X12345357Y-18196929D01*
X12345357Y-18215976D01*
X12545357Y-18215976D02*
X12431071Y-18215976D01*
X12488214Y-18215976D02*
X12488214Y-18015976D01*
X12469167Y-18044548D01*
X12450119Y-18063595D01*
X12431071Y-18073119D01*
X12735833Y-18215976D02*
X12621548Y-18215976D01*
X12678690Y-18215976D02*
X12678690Y-18015976D01*
X12659643Y-18044548D01*
X12640595Y-18063595D01*
X12621548Y-18073119D01*
X12850119Y-18101690D02*
X12831071Y-18092167D01*
X12821548Y-18082643D01*
X12812024Y-18063595D01*
X12812024Y-18054071D01*
X12821548Y-18035024D01*
X12831071Y-18025500D01*
X12850119Y-18015976D01*
X12888214Y-18015976D01*
X12907262Y-18025500D01*
X12916786Y-18035024D01*
X12926309Y-18054071D01*
X12926309Y-18063595D01*
X12916786Y-18082643D01*
X12907262Y-18092167D01*
X12888214Y-18101690D01*
X12850119Y-18101690D01*
X12831071Y-18111214D01*
X12821548Y-18120738D01*
X12812024Y-18139786D01*
X12812024Y-18177881D01*
X12821548Y-18196929D01*
X12831071Y-18206452D01*
X12850119Y-18215976D01*
X12888214Y-18215976D01*
X12907262Y-18206452D01*
X12916786Y-18196929D01*
X12926309Y-18177881D01*
X12926309Y-18139786D01*
X12916786Y-18120738D01*
X12907262Y-18111214D01*
X12888214Y-18101690D01*
X13116786Y-18215976D02*
X13002500Y-18215976D01*
X13059643Y-18215976D02*
X13059643Y-18015976D01*
X13040595Y-18044548D01*
X13021548Y-18063595D01*
X13002500Y-18073119D01*
X13192976Y-18015976D02*
X13192976Y-18054071D01*
X13269167Y-18015976D02*
X13269167Y-18054071D01*
X13564405Y-18292167D02*
X13554881Y-18282643D01*
X13535833Y-18254071D01*
X13526309Y-18235024D01*
X13516786Y-18206452D01*
X13507262Y-18158833D01*
X13507262Y-18120738D01*
X13516786Y-18073119D01*
X13526309Y-18044548D01*
X13535833Y-18025500D01*
X13554881Y-17996929D01*
X13564405Y-17987405D01*
X13745357Y-18215976D02*
X13631071Y-18215976D01*
X13688214Y-18215976D02*
X13688214Y-18015976D01*
X13669167Y-18044548D01*
X13650119Y-18063595D01*
X13631071Y-18073119D01*
X13983452Y-18215976D02*
X13983452Y-18015976D01*
X14069167Y-18215976D02*
X14069167Y-18111214D01*
X14059643Y-18092167D01*
X14040595Y-18082643D01*
X14012024Y-18082643D01*
X13992976Y-18092167D01*
X13983452Y-18101690D01*
X14192976Y-18215976D02*
X14173928Y-18206452D01*
X14164405Y-18196929D01*
X14154881Y-18177881D01*
X14154881Y-18120738D01*
X14164405Y-18101690D01*
X14173928Y-18092167D01*
X14192976Y-18082643D01*
X14221548Y-18082643D01*
X14240595Y-18092167D01*
X14250119Y-18101690D01*
X14259643Y-18120738D01*
X14259643Y-18177881D01*
X14250119Y-18196929D01*
X14240595Y-18206452D01*
X14221548Y-18215976D01*
X14192976Y-18215976D01*
X14373928Y-18215976D02*
X14354881Y-18206452D01*
X14345357Y-18187405D01*
X14345357Y-18015976D01*
X14526309Y-18206452D02*
X14507262Y-18215976D01*
X14469167Y-18215976D01*
X14450119Y-18206452D01*
X14440595Y-18187405D01*
X14440595Y-18111214D01*
X14450119Y-18092167D01*
X14469167Y-18082643D01*
X14507262Y-18082643D01*
X14526309Y-18092167D01*
X14535833Y-18111214D01*
X14535833Y-18130262D01*
X14440595Y-18149310D01*
X14602500Y-18292167D02*
X14612024Y-18282643D01*
X14631071Y-18254071D01*
X14640595Y-18235024D01*
X14650119Y-18206452D01*
X14659643Y-18158833D01*
X14659643Y-18120738D01*
X14650119Y-18073119D01*
X14640595Y-18044548D01*
X14631071Y-18025500D01*
X14612024Y-17996929D01*
X14602500Y-17987405D01*
M02*
