G04 #@! TF.GenerationSoftware,KiCad,Pcbnew,(6.0.4-0)*
G04 #@! TF.CreationDate,2022-07-20T07:57:21-04:00*
G04 #@! TF.ProjectId,80m_Tx_Antenna,38306d5f-5478-45f4-916e-74656e6e612e,rev?*
G04 #@! TF.SameCoordinates,Original*
G04 #@! TF.FileFunction,Copper,L2,Bot*
G04 #@! TF.FilePolarity,Positive*
%FSLAX46Y46*%
G04 Gerber Fmt 4.6, Leading zero omitted, Abs format (unit mm)*
G04 Created by KiCad (PCBNEW (6.0.4-0)) date 2022-07-20 07:57:21*
%MOMM*%
%LPD*%
G01*
G04 APERTURE LIST*
G04 #@! TA.AperFunction,ComponentPad*
%ADD10C,4.000000*%
G04 #@! TD*
G04 #@! TA.AperFunction,SMDPad,CuDef*
%ADD11R,5.000000X10.000000*%
G04 #@! TD*
G04 #@! TA.AperFunction,ComponentPad*
%ADD12C,3.500000*%
G04 #@! TD*
G04 #@! TA.AperFunction,ComponentPad*
%ADD13C,3.000000*%
G04 #@! TD*
G04 #@! TA.AperFunction,SMDPad,CuDef*
%ADD14R,10.000000X20.000000*%
G04 #@! TD*
G04 #@! TA.AperFunction,SMDPad,CuDef*
%ADD15R,15.000000X5.000000*%
G04 #@! TD*
G04 #@! TA.AperFunction,ComponentPad*
%ADD16C,5.000000*%
G04 #@! TD*
G04 #@! TA.AperFunction,ComponentPad*
%ADD17R,3.500000X3.500000*%
G04 #@! TD*
G04 #@! TA.AperFunction,SMDPad,CuDef*
%ADD18R,1.524000X5.000000*%
G04 #@! TD*
G04 #@! TA.AperFunction,WasherPad*
%ADD19C,5.000000*%
G04 #@! TD*
G04 #@! TA.AperFunction,ComponentPad*
%ADD20C,2.000000*%
G04 #@! TD*
G04 #@! TA.AperFunction,ComponentPad*
%ADD21R,3.000000X3.500000*%
G04 #@! TD*
G04 #@! TA.AperFunction,Conductor*
%ADD22C,1.000000*%
G04 #@! TD*
G04 APERTURE END LIST*
D10*
X122240000Y-71580000D03*
D11*
X122240000Y-82470000D03*
D12*
X122240000Y-81970000D03*
D13*
X122050000Y-113050000D03*
D11*
X122050000Y-116050000D03*
D14*
X137050000Y-125050000D03*
D10*
X137210020Y-125212040D03*
X137050000Y-119050000D03*
X137050000Y-131050000D03*
X127450000Y-138050000D03*
D15*
X122050000Y-138050000D03*
D16*
X122144880Y-138131280D03*
D10*
X116650000Y-138050000D03*
D17*
X139704100Y-91307200D03*
D18*
X139785380Y-93659240D03*
D17*
X128482380Y-106816440D03*
D18*
X128538260Y-109275160D03*
X102460500Y-96397360D03*
D12*
X102409700Y-98800200D03*
D18*
X114080580Y-100532480D03*
D12*
X114100900Y-102953100D03*
D19*
X105000000Y-62000000D03*
X111000000Y-62000000D03*
X117000000Y-62000000D03*
D20*
X117770000Y-125360000D03*
X126470000Y-125360000D03*
X117770000Y-131050000D03*
X126470000Y-131050000D03*
D21*
X107300000Y-132280000D03*
X107300000Y-136630000D03*
D12*
X107300000Y-120630000D03*
X107300000Y-124980000D03*
D20*
X136667198Y-82994648D03*
X140362921Y-85509630D03*
D22*
X128870000Y-116050000D02*
X136110000Y-108810000D01*
X136110000Y-108810000D02*
X136110000Y-94049399D01*
X136110000Y-94049399D02*
X136235800Y-90692088D01*
X136235800Y-90692088D02*
X136240000Y-90580000D01*
X136235800Y-89636751D02*
X140362921Y-85509630D01*
X122050000Y-116050000D02*
X128870000Y-116050000D01*
X136235800Y-90692088D02*
X136235800Y-89636751D01*
X114100900Y-102953100D02*
X114080580Y-100532480D01*
X114080580Y-90629420D02*
X122240000Y-82470000D01*
X117770000Y-131050000D02*
X117770000Y-125360000D01*
X114080580Y-100532480D02*
X114080580Y-90629420D01*
X120321280Y-137851280D02*
X122144880Y-138131280D01*
X126470000Y-125360000D02*
X126470000Y-131050000D01*
X101960000Y-98800500D02*
X101959700Y-98800200D01*
G04 #@! TA.AperFunction,Conductor*
G36*
X105112121Y-97980002D02*
G01*
X105158614Y-98033658D01*
X105170000Y-98086000D01*
X105170000Y-111040000D01*
X107643095Y-113513095D01*
X107677121Y-113575407D01*
X107680000Y-113602190D01*
X107680000Y-117010000D01*
X110163095Y-119493095D01*
X110197121Y-119555407D01*
X110200000Y-119582190D01*
X110200000Y-127054000D01*
X110179998Y-127122121D01*
X110126342Y-127168614D01*
X110074000Y-127180000D01*
X103676000Y-127180000D01*
X103607879Y-127159998D01*
X103561386Y-127106342D01*
X103550000Y-127054000D01*
X103550000Y-119700000D01*
X100396905Y-116546905D01*
X100362879Y-116484593D01*
X100360000Y-116457810D01*
X100360000Y-98086000D01*
X100380002Y-98017879D01*
X100433658Y-97971386D01*
X100486000Y-97960000D01*
X105044000Y-97960000D01*
X105112121Y-97980002D01*
G37*
G04 #@! TD.AperFunction*
G04 #@! TA.AperFunction,Conductor*
G36*
X115607202Y-129779130D02*
G01*
X115675151Y-129799708D01*
X115721188Y-129853755D01*
X115729780Y-129880878D01*
X116789754Y-135286744D01*
X116809676Y-135388347D01*
X116810286Y-135391699D01*
X116937762Y-136150184D01*
X117385913Y-138816684D01*
X117377478Y-138887178D01*
X117332271Y-138941921D01*
X117264718Y-138963531D01*
X114531522Y-139029963D01*
X114528460Y-139030000D01*
X105206000Y-139030000D01*
X105137879Y-139009998D01*
X105091386Y-138956342D01*
X105080000Y-138904000D01*
X105080000Y-134507165D01*
X110447866Y-134507165D01*
X110482952Y-134764970D01*
X110555758Y-135014757D01*
X110664686Y-135251039D01*
X110667246Y-135254944D01*
X110667249Y-135254949D01*
X110804775Y-135464712D01*
X110804779Y-135464717D01*
X110807341Y-135468625D01*
X110980591Y-135662735D01*
X111180629Y-135829105D01*
X111403061Y-135964080D01*
X111407375Y-135965889D01*
X111407377Y-135965890D01*
X111638686Y-136062886D01*
X111638691Y-136062888D01*
X111643001Y-136064695D01*
X111647533Y-136065846D01*
X111647536Y-136065847D01*
X111772815Y-136097663D01*
X111895177Y-136128739D01*
X112111286Y-136150500D01*
X112266044Y-136150500D01*
X112268369Y-136150327D01*
X112268375Y-136150327D01*
X112454814Y-136136472D01*
X112454818Y-136136471D01*
X112459466Y-136136126D01*
X112713232Y-136078705D01*
X112717586Y-136077012D01*
X112951370Y-135986098D01*
X112951372Y-135986097D01*
X112955723Y-135984405D01*
X112991285Y-135964080D01*
X113039038Y-135936786D01*
X113181612Y-135855299D01*
X113385936Y-135694223D01*
X113564208Y-135504714D01*
X113712511Y-135290937D01*
X113730258Y-135254949D01*
X113825521Y-135061775D01*
X113825522Y-135061772D01*
X113827586Y-135057587D01*
X113906906Y-134809792D01*
X113948728Y-134552994D01*
X113952134Y-134292835D01*
X113917048Y-134035030D01*
X113844242Y-133785243D01*
X113735314Y-133548961D01*
X113706637Y-133505221D01*
X113595225Y-133335288D01*
X113595221Y-133335283D01*
X113592659Y-133331375D01*
X113419409Y-133137265D01*
X113219371Y-132970895D01*
X112996939Y-132835920D01*
X112992623Y-132834110D01*
X112761314Y-132737114D01*
X112761309Y-132737112D01*
X112756999Y-132735305D01*
X112752467Y-132734154D01*
X112752464Y-132734153D01*
X112627185Y-132702337D01*
X112504823Y-132671261D01*
X112288714Y-132649500D01*
X112133956Y-132649500D01*
X112131631Y-132649673D01*
X112131625Y-132649673D01*
X111945186Y-132663528D01*
X111945182Y-132663529D01*
X111940534Y-132663874D01*
X111686768Y-132721295D01*
X111682416Y-132722987D01*
X111682414Y-132722988D01*
X111448630Y-132813902D01*
X111448628Y-132813903D01*
X111444277Y-132815595D01*
X111440223Y-132817912D01*
X111440221Y-132817913D01*
X111404467Y-132838348D01*
X111218388Y-132944701D01*
X111014064Y-133105777D01*
X110835792Y-133295286D01*
X110687489Y-133509063D01*
X110685423Y-133513253D01*
X110685421Y-133513256D01*
X110665720Y-133553207D01*
X110572414Y-133742413D01*
X110493094Y-133990208D01*
X110451272Y-134247006D01*
X110447866Y-134507165D01*
X105080000Y-134507165D01*
X105080000Y-129817071D01*
X105100002Y-129748950D01*
X105153658Y-129702457D01*
X105207067Y-129691076D01*
X115607202Y-129779130D01*
G37*
G04 #@! TD.AperFunction*
G04 #@! TA.AperFunction,Conductor*
G36*
X115222121Y-102360002D02*
G01*
X115268614Y-102413658D01*
X115280000Y-102466000D01*
X115280000Y-107347810D01*
X115259998Y-107415931D01*
X115243095Y-107436905D01*
X114660000Y-108020000D01*
X114660000Y-112370000D01*
X118033666Y-115743666D01*
X118067692Y-115805978D01*
X118070563Y-115831380D01*
X118072436Y-116002312D01*
X118193605Y-127062620D01*
X118174351Y-127130955D01*
X118121208Y-127178033D01*
X118067613Y-127190000D01*
X114429599Y-127190000D01*
X114361478Y-127169998D01*
X114314985Y-127116342D01*
X114303607Y-127065409D01*
X114180203Y-116028115D01*
X114180203Y-116028113D01*
X114180000Y-116010000D01*
X111746905Y-113576905D01*
X111712879Y-113514593D01*
X111710000Y-113487810D01*
X111710000Y-102466000D01*
X111730002Y-102397879D01*
X111783658Y-102351386D01*
X111836000Y-102340000D01*
X115154000Y-102340000D01*
X115222121Y-102360002D01*
G37*
G04 #@! TD.AperFunction*
G04 #@! TA.AperFunction,Conductor*
G36*
X126812121Y-68260002D02*
G01*
X126858614Y-68313658D01*
X126870000Y-68366000D01*
X126870000Y-86087810D01*
X126849998Y-86155931D01*
X126833095Y-86176905D01*
X125455095Y-87554905D01*
X125392783Y-87588931D01*
X125321968Y-87583866D01*
X125265132Y-87541319D01*
X125240321Y-87474799D01*
X125240000Y-87465810D01*
X125240000Y-84988115D01*
X125235525Y-84972876D01*
X125234135Y-84971671D01*
X125226452Y-84970000D01*
X124758115Y-84970000D01*
X124742876Y-84974475D01*
X124741671Y-84975865D01*
X124740000Y-84983548D01*
X124740000Y-87951885D01*
X124744475Y-87967124D01*
X124745865Y-87968329D01*
X124763340Y-87972130D01*
X124825653Y-88006154D01*
X124859679Y-88068466D01*
X124854615Y-88139282D01*
X124825654Y-88184346D01*
X124776905Y-88233095D01*
X124714593Y-88267121D01*
X124687810Y-88270000D01*
X119872190Y-88270000D01*
X119804069Y-88249998D01*
X119783095Y-88233095D01*
X119715986Y-88165986D01*
X119681960Y-88103674D01*
X119687025Y-88032859D01*
X119715082Y-87995380D01*
X119712896Y-87993486D01*
X119738329Y-87964135D01*
X119740000Y-87956452D01*
X119740000Y-84988115D01*
X119735525Y-84972876D01*
X119734135Y-84971671D01*
X119726452Y-84970000D01*
X119258115Y-84970000D01*
X119242876Y-84974475D01*
X119241671Y-84975865D01*
X119240000Y-84983548D01*
X119240000Y-87385810D01*
X119219998Y-87453931D01*
X119166342Y-87500424D01*
X119096068Y-87510528D01*
X119031488Y-87481034D01*
X119024905Y-87474905D01*
X117576905Y-86026905D01*
X117542879Y-85964593D01*
X117540000Y-85937810D01*
X117540000Y-75815508D01*
X118307245Y-75815508D01*
X118344567Y-76059410D01*
X118421223Y-76293940D01*
X118535155Y-76512801D01*
X118683303Y-76710116D01*
X118861688Y-76880584D01*
X118865960Y-76883498D01*
X118865961Y-76883499D01*
X118895113Y-76903385D01*
X119065520Y-77019629D01*
X119223046Y-77092750D01*
X119276412Y-77139573D01*
X119295993Y-77207816D01*
X119287977Y-77251266D01*
X119249414Y-77354133D01*
X119245789Y-77369379D01*
X119240369Y-77419271D01*
X119240000Y-77426085D01*
X119240000Y-79951885D01*
X119244475Y-79967124D01*
X119245865Y-79968329D01*
X119253548Y-79970000D01*
X119721885Y-79970000D01*
X119737124Y-79965525D01*
X119738329Y-79964135D01*
X119740000Y-79956452D01*
X119740000Y-77336980D01*
X119760002Y-77268859D01*
X119813658Y-77222366D01*
X119866000Y-77210980D01*
X119871774Y-77210980D01*
X119874347Y-77210768D01*
X119874358Y-77210768D01*
X120049980Y-77196329D01*
X120049986Y-77196328D01*
X120055131Y-77195905D01*
X120294437Y-77135796D01*
X120520713Y-77037408D01*
X120727881Y-76903385D01*
X120749736Y-76883499D01*
X120785756Y-76850723D01*
X120910378Y-76737326D01*
X120913577Y-76733275D01*
X120913581Y-76733271D01*
X121060101Y-76547744D01*
X121060104Y-76547739D01*
X121063302Y-76543690D01*
X121065797Y-76539171D01*
X121180050Y-76332202D01*
X121180052Y-76332198D01*
X121182547Y-76327678D01*
X121194495Y-76293940D01*
X121263185Y-76099965D01*
X121263186Y-76099961D01*
X121264911Y-76095090D01*
X121308181Y-75852174D01*
X121308629Y-75815508D01*
X123224685Y-75815508D01*
X123262007Y-76059410D01*
X123338663Y-76293940D01*
X123452595Y-76512801D01*
X123600743Y-76710116D01*
X123779128Y-76880584D01*
X123783400Y-76883498D01*
X123783401Y-76883499D01*
X123812553Y-76903385D01*
X123982960Y-77019629D01*
X124094862Y-77071572D01*
X124202069Y-77121336D01*
X124202073Y-77121337D01*
X124206764Y-77123515D01*
X124444531Y-77189454D01*
X124627390Y-77208996D01*
X124692999Y-77236124D01*
X124733527Y-77294416D01*
X124740000Y-77334283D01*
X124740000Y-79951885D01*
X124744475Y-79967124D01*
X124745865Y-79968329D01*
X124753548Y-79970000D01*
X125221885Y-79970000D01*
X125237124Y-79965525D01*
X125238329Y-79964135D01*
X125240000Y-79956452D01*
X125240000Y-77426085D01*
X125239631Y-77419271D01*
X125234211Y-77369379D01*
X125230586Y-77354133D01*
X125199594Y-77271461D01*
X125194411Y-77200654D01*
X125228332Y-77138285D01*
X125267333Y-77111683D01*
X125433404Y-77039473D01*
X125433405Y-77039473D01*
X125438153Y-77037408D01*
X125645321Y-76903385D01*
X125667176Y-76883499D01*
X125703196Y-76850723D01*
X125827818Y-76737326D01*
X125831017Y-76733275D01*
X125831021Y-76733271D01*
X125977541Y-76547744D01*
X125977544Y-76547739D01*
X125980742Y-76543690D01*
X125983237Y-76539171D01*
X126097490Y-76332202D01*
X126097492Y-76332198D01*
X126099987Y-76327678D01*
X126111935Y-76293940D01*
X126180625Y-76099965D01*
X126180626Y-76099961D01*
X126182351Y-76095090D01*
X126225621Y-75852174D01*
X126228635Y-75605452D01*
X126191313Y-75361550D01*
X126114657Y-75127020D01*
X126000725Y-74908159D01*
X125852577Y-74710844D01*
X125674192Y-74540376D01*
X125645872Y-74521057D01*
X125474639Y-74404250D01*
X125474640Y-74404250D01*
X125470360Y-74401331D01*
X125358458Y-74349388D01*
X125251251Y-74299624D01*
X125251247Y-74299623D01*
X125246556Y-74297445D01*
X125008789Y-74231506D01*
X125003652Y-74230957D01*
X124810703Y-74210336D01*
X124810695Y-74210336D01*
X124807368Y-74209980D01*
X124664106Y-74209980D01*
X124661533Y-74210192D01*
X124661522Y-74210192D01*
X124485900Y-74224631D01*
X124485894Y-74224632D01*
X124480749Y-74225055D01*
X124241443Y-74285164D01*
X124015167Y-74383552D01*
X123807999Y-74517575D01*
X123804174Y-74521055D01*
X123804172Y-74521057D01*
X123782941Y-74540376D01*
X123625502Y-74683634D01*
X123622303Y-74687685D01*
X123622299Y-74687689D01*
X123475779Y-74873216D01*
X123475776Y-74873221D01*
X123472578Y-74877270D01*
X123470085Y-74881786D01*
X123470083Y-74881789D01*
X123457810Y-74904023D01*
X123353333Y-75093282D01*
X123351609Y-75098151D01*
X123351607Y-75098155D01*
X123339644Y-75131938D01*
X123270969Y-75325870D01*
X123227699Y-75568786D01*
X123224685Y-75815508D01*
X121308629Y-75815508D01*
X121311195Y-75605452D01*
X121273873Y-75361550D01*
X121197217Y-75127020D01*
X121083285Y-74908159D01*
X120935137Y-74710844D01*
X120756752Y-74540376D01*
X120728432Y-74521057D01*
X120557199Y-74404250D01*
X120557200Y-74404250D01*
X120552920Y-74401331D01*
X120441018Y-74349388D01*
X120333811Y-74299624D01*
X120333807Y-74299623D01*
X120329116Y-74297445D01*
X120091349Y-74231506D01*
X120086212Y-74230957D01*
X119893263Y-74210336D01*
X119893255Y-74210336D01*
X119889928Y-74209980D01*
X119746666Y-74209980D01*
X119744093Y-74210192D01*
X119744082Y-74210192D01*
X119568460Y-74224631D01*
X119568454Y-74224632D01*
X119563309Y-74225055D01*
X119324003Y-74285164D01*
X119097727Y-74383552D01*
X118890559Y-74517575D01*
X118886734Y-74521055D01*
X118886732Y-74521057D01*
X118865501Y-74540376D01*
X118708062Y-74683634D01*
X118704863Y-74687685D01*
X118704859Y-74687689D01*
X118558339Y-74873216D01*
X118558336Y-74873221D01*
X118555138Y-74877270D01*
X118552645Y-74881786D01*
X118552643Y-74881789D01*
X118540370Y-74904023D01*
X118435893Y-75093282D01*
X118434169Y-75098151D01*
X118434167Y-75098155D01*
X118422204Y-75131938D01*
X118353529Y-75325870D01*
X118310259Y-75568786D01*
X118307245Y-75815508D01*
X117540000Y-75815508D01*
X117540000Y-71557953D01*
X120134707Y-71557953D01*
X120151194Y-71843878D01*
X120152019Y-71848083D01*
X120152020Y-71848091D01*
X120183853Y-72010342D01*
X120206332Y-72124920D01*
X120207719Y-72128970D01*
X120207720Y-72128975D01*
X120229484Y-72192542D01*
X120299102Y-72395878D01*
X120427787Y-72651740D01*
X120430213Y-72655269D01*
X120430216Y-72655275D01*
X120468920Y-72711589D01*
X120590006Y-72887770D01*
X120782756Y-73099600D01*
X121002472Y-73283311D01*
X121245088Y-73435503D01*
X121248990Y-73437265D01*
X121248994Y-73437267D01*
X121502202Y-73551595D01*
X121502206Y-73551597D01*
X121506114Y-73553361D01*
X121510233Y-73554581D01*
X121776606Y-73633485D01*
X121776611Y-73633486D01*
X121780719Y-73634703D01*
X121784953Y-73635351D01*
X121784958Y-73635352D01*
X122032214Y-73673187D01*
X122063824Y-73678024D01*
X122209589Y-73680314D01*
X122345898Y-73682456D01*
X122345904Y-73682456D01*
X122350189Y-73682523D01*
X122354441Y-73682008D01*
X122354449Y-73682008D01*
X122574221Y-73655411D01*
X122634514Y-73648115D01*
X122638662Y-73647027D01*
X122638666Y-73647026D01*
X122907388Y-73576528D01*
X122911539Y-73575439D01*
X122915500Y-73573799D01*
X122915504Y-73573797D01*
X123058370Y-73514620D01*
X123176138Y-73465839D01*
X123225034Y-73437267D01*
X123419717Y-73323503D01*
X123419718Y-73323503D01*
X123423415Y-73321342D01*
X123648793Y-73144623D01*
X123695491Y-73096435D01*
X123845119Y-72942030D01*
X123848102Y-72938952D01*
X123850635Y-72935504D01*
X123850639Y-72935499D01*
X124015117Y-72711589D01*
X124017655Y-72708134D01*
X124046355Y-72655275D01*
X124152263Y-72460217D01*
X124152264Y-72460215D01*
X124154313Y-72456441D01*
X124255548Y-72188530D01*
X124319487Y-71909358D01*
X124344946Y-71624092D01*
X124345408Y-71580000D01*
X124325928Y-71294263D01*
X124267850Y-71013814D01*
X124172248Y-70743842D01*
X124040891Y-70489342D01*
X124038428Y-70485837D01*
X123878673Y-70258529D01*
X123878668Y-70258523D01*
X123876209Y-70255024D01*
X123681251Y-70045224D01*
X123677935Y-70042510D01*
X123677932Y-70042507D01*
X123462941Y-69866539D01*
X123459623Y-69863823D01*
X123215427Y-69714180D01*
X123197419Y-69706275D01*
X122957110Y-69600786D01*
X122957106Y-69600785D01*
X122953182Y-69599062D01*
X122677739Y-69520600D01*
X122467881Y-69490733D01*
X122398448Y-69480851D01*
X122398446Y-69480851D01*
X122394196Y-69480246D01*
X122242333Y-69479451D01*
X122112086Y-69478769D01*
X122112080Y-69478769D01*
X122107800Y-69478747D01*
X122103556Y-69479306D01*
X122103552Y-69479306D01*
X121979031Y-69495699D01*
X121823851Y-69516129D01*
X121819711Y-69517262D01*
X121819709Y-69517262D01*
X121803209Y-69521776D01*
X121547602Y-69591702D01*
X121543654Y-69593386D01*
X121288117Y-69702382D01*
X121288113Y-69702384D01*
X121284165Y-69704068D01*
X121038415Y-69851146D01*
X120814900Y-70030215D01*
X120617755Y-70237962D01*
X120450629Y-70470543D01*
X120316614Y-70723653D01*
X120218190Y-70992610D01*
X120157178Y-71272436D01*
X120134707Y-71557953D01*
X117540000Y-71557953D01*
X117540000Y-68366000D01*
X117560002Y-68297879D01*
X117613658Y-68251386D01*
X117666000Y-68240000D01*
X126744000Y-68240000D01*
X126812121Y-68260002D01*
G37*
G04 #@! TD.AperFunction*
M02*
