G04 #@! TF.GenerationSoftware,KiCad,Pcbnew,(6.0.4-0)*
G04 #@! TF.CreationDate,2022-07-20T07:57:22-04:00*
G04 #@! TF.ProjectId,80m_Tx_Antenna,38306d5f-5478-45f4-916e-74656e6e612e,rev?*
G04 #@! TF.SameCoordinates,Original*
G04 #@! TF.FileFunction,Soldermask,Bot*
G04 #@! TF.FilePolarity,Negative*
%FSLAX46Y46*%
G04 Gerber Fmt 4.6, Leading zero omitted, Abs format (unit mm)*
G04 Created by KiCad (PCBNEW (6.0.4-0)) date 2022-07-20 07:57:22*
%MOMM*%
%LPD*%
G01*
G04 APERTURE LIST*
%ADD10C,2.500000*%
%ADD11C,4.000000*%
%ADD12R,5.000000X10.000000*%
%ADD13C,3.500000*%
%ADD14C,3.000000*%
%ADD15R,10.000000X20.000000*%
%ADD16R,15.000000X5.000000*%
%ADD17C,5.000000*%
%ADD18R,3.500000X3.500000*%
%ADD19R,1.524000X5.000000*%
%ADD20C,0.500000*%
%ADD21C,2.000000*%
%ADD22R,3.000000X3.500000*%
G04 APERTURE END LIST*
D10*
X124726660Y-75710480D03*
D11*
X122240000Y-71580000D03*
D10*
X119809220Y-75710480D03*
D12*
X122240000Y-82470000D03*
D13*
X122240000Y-81970000D03*
D10*
X130368500Y-123191000D03*
X119050000Y-151050000D03*
X124250000Y-134050000D03*
X130393900Y-127661400D03*
X125050000Y-144050000D03*
X120050000Y-123050000D03*
X119050000Y-144050000D03*
X119850000Y-134050000D03*
X125050000Y-151050000D03*
X124050000Y-123050000D03*
D14*
X122050000Y-113050000D03*
D12*
X122050000Y-116050000D03*
D15*
X137050000Y-125050000D03*
D11*
X137210020Y-125212040D03*
X137050000Y-119050000D03*
X137050000Y-131050000D03*
X127450000Y-138050000D03*
D16*
X122050000Y-138050000D03*
D17*
X122144880Y-138131280D03*
D11*
X116650000Y-138050000D03*
D18*
X139704100Y-91307200D03*
D19*
X139785380Y-93659240D03*
D18*
X128482380Y-106816440D03*
D19*
X128538260Y-109275160D03*
X102460500Y-96397360D03*
D13*
X102409700Y-98800200D03*
D19*
X114080580Y-100532480D03*
D13*
X114100900Y-102953100D03*
D14*
X116870000Y-93120000D03*
X111300000Y-85260000D03*
X131570000Y-101260000D03*
X141170000Y-101260000D03*
X116900000Y-108990000D03*
X111660000Y-116900000D03*
D20*
X103420000Y-66650000D03*
X102050000Y-66210000D03*
X102720000Y-66480000D03*
X102720000Y-67570000D03*
X106250000Y-67010000D03*
X105500000Y-67010000D03*
X104750000Y-67010000D03*
X103410000Y-67390000D03*
X110000000Y-67010000D03*
X110750000Y-67010000D03*
X111500000Y-67010000D03*
X112250000Y-67010000D03*
X109250000Y-67000000D03*
X108500000Y-67000000D03*
X107750000Y-67000000D03*
X107000000Y-67000000D03*
X119030000Y-67030000D03*
X119780000Y-67030000D03*
X120530000Y-67030000D03*
X121280000Y-67030000D03*
X124280000Y-67040000D03*
X123530000Y-67040000D03*
X122780000Y-67040000D03*
X122030000Y-67040000D03*
X116030000Y-67040000D03*
X116780000Y-67040000D03*
X117530000Y-67040000D03*
X118280000Y-67040000D03*
X115280000Y-67030000D03*
X114530000Y-67030000D03*
X113780000Y-67030000D03*
X113030000Y-67030000D03*
X137060000Y-67050000D03*
X137810000Y-67050000D03*
X138560000Y-67050000D03*
X139310000Y-67050000D03*
X131030000Y-67020000D03*
X131780000Y-67020000D03*
X132530000Y-67020000D03*
X133280000Y-67020000D03*
X136280000Y-67030000D03*
X135530000Y-67030000D03*
X134780000Y-67030000D03*
X134030000Y-67030000D03*
X128030000Y-67030000D03*
X128780000Y-67030000D03*
X129530000Y-67030000D03*
X130280000Y-67030000D03*
X127280000Y-67020000D03*
X126530000Y-67020000D03*
X125780000Y-67020000D03*
X125030000Y-67020000D03*
X102040000Y-67830000D03*
X104020000Y-67020000D03*
X101430000Y-65810000D03*
X101400000Y-68170000D03*
X100880000Y-65300000D03*
X100810000Y-68610000D03*
X100420000Y-64730000D03*
X100400000Y-69230000D03*
X100380000Y-59600000D03*
X100790000Y-58980000D03*
X101300000Y-58460000D03*
X104000000Y-57390000D03*
X101880000Y-58010000D03*
X103280000Y-57530000D03*
X102560000Y-57700000D03*
X143610000Y-64440000D03*
X143200000Y-65060000D03*
X142690000Y-65580000D03*
X139990000Y-66650000D03*
X142110000Y-66030000D03*
X140710000Y-66510000D03*
X141430000Y-66340000D03*
X143600000Y-151370000D03*
X143190000Y-151990000D03*
X142680000Y-152510000D03*
X139980000Y-153580000D03*
X142100000Y-152960000D03*
X140700000Y-153440000D03*
X141420000Y-153270000D03*
D14*
X138180000Y-61900000D03*
X132480000Y-61840000D03*
D17*
X105000000Y-62000000D03*
X111000000Y-62000000D03*
X117000000Y-62000000D03*
D20*
X143590000Y-67000000D03*
X142860000Y-67020000D03*
X142120000Y-67020000D03*
X100450000Y-67000000D03*
X101190000Y-67000000D03*
X101920000Y-67000000D03*
D13*
X122150000Y-100990000D03*
D21*
X117770000Y-125360000D03*
X126470000Y-125360000D03*
D14*
X102600000Y-148000000D03*
X102600000Y-141100000D03*
X112200000Y-141100000D03*
X126840000Y-61960000D03*
X134170000Y-77390000D03*
X130200000Y-70580000D03*
X112200000Y-148000000D03*
X102600000Y-134400000D03*
X112200000Y-134400000D03*
D21*
X117770000Y-131050000D03*
X126470000Y-131050000D03*
D22*
X107300000Y-132280000D03*
X107300000Y-136630000D03*
D13*
X107300000Y-120630000D03*
X107300000Y-124980000D03*
D21*
X136667198Y-82994648D03*
X140362921Y-85509630D03*
D20*
X141410000Y-57720000D03*
X140690000Y-57550000D03*
X142090000Y-58030000D03*
X139970000Y-57410000D03*
X142670000Y-58480000D03*
X143180000Y-59000000D03*
X143590000Y-59620000D03*
X143600000Y-69610000D03*
X143190000Y-68990000D03*
X142680000Y-68470000D03*
X139980000Y-67400000D03*
X142100000Y-68020000D03*
X140700000Y-67540000D03*
X141420000Y-67710000D03*
X102590000Y-153260000D03*
X103310000Y-153430000D03*
X101910000Y-152950000D03*
X104030000Y-153570000D03*
X101330000Y-152500000D03*
X100820000Y-151980000D03*
X100410000Y-151360000D03*
M02*
